<?xml version="1.0" standalone="no"?>
<!DOCTYPE svg PUBLIC "-//W3C//DTD SVG 20010904//EN"
 "http://www.w3.org/TR/2001/REC-SVG-20010904/DTD/svg10.dtd">
<svg version="1.0" xmlns="http://www.w3.org/2000/svg"
 width="1100.000000pt" height="1100.000000pt" viewBox="0 0 1100.000000 1100.000000"
 preserveAspectRatio="xMidYMid meet">
<metadata>
Created by potrace 1.11, written by Peter Selinger 2001-2013
</metadata>
<g transform="translate(0.000000,1100.000000) scale(0.100000,-0.100000)"
fill="#000000" stroke="none">
<path d="M3960 10710 c0 -5 5 -10 11 -10 5 0 7 5 4 10 -3 6 -8 10 -11 10 -2 0
-4 -4 -4 -10z"/>
<path d="M4225 10455 c-56 -12 -200 -13 -212 -1 -3 3 -15 -1 -27 -9 -12 -9
-44 -15 -77 -15 -31 0 -76 -7 -99 -15 -23 -8 -53 -15 -67 -15 -13 0 -62 -18
-109 -40 -47 -22 -87 -40 -90 -40 -13 0 -132 -108 -158 -144 -16 -22 -54 -63
-84 -91 -30 -27 -82 -79 -116 -115 -34 -35 -82 -85 -107 -110 -25 -25 -48 -53
-52 -63 -4 -10 -27 -27 -52 -38 -25 -11 -45 -23 -46 -27 -5 -51 -12 -80 -24
-97 -8 -11 -27 -38 -42 -60 -15 -22 -39 -53 -54 -70 -25 -29 -64 -98 -90 -161
-7 -17 -25 -38 -40 -46 -21 -13 -28 -26 -34 -66 -4 -34 -14 -57 -31 -73 -13
-12 -24 -26 -24 -31 0 -5 -17 -43 -37 -86 -20 -42 -40 -93 -44 -112 -19 -88
-32 -130 -59 -195 -15 -38 -31 -97 -35 -130 -7 -60 4 -93 55 -175 5 -8 20 -40
33 -70 54 -123 71 -156 95 -187 13 -18 21 -33 18 -33 -4 0 3 -18 14 -40 11
-21 20 -47 20 -57 0 -10 7 -31 16 -48 12 -24 14 -47 9 -112 -7 -82 -7 -82 -26
-60 -18 21 -80 105 -106 144 -7 10 -46 64 -85 121 -81 114 -175 259 -184 282
-18 47 -118 210 -148 241 -9 9 -16 19 -16 23 0 5 -11 21 -25 38 -14 16 -25 35
-25 43 0 7 -7 18 -16 25 -8 8 -22 27 -29 44 -54 115 -185 317 -249 382 -47 48
-54 52 -70 41 -17 -12 -17 -17 -5 -50 7 -21 40 -65 73 -100 56 -59 106 -121
106 -133 0 -3 24 -43 53 -87 29 -45 56 -90 60 -99 3 -9 29 -51 56 -93 28 -42
51 -78 51 -81 0 -2 21 -34 46 -70 34 -49 43 -68 34 -74 -14 -9 -14 -8 -6 -200
9 -193 12 -210 43 -210 23 0 25 3 18 28 -11 38 -18 239 -10 281 l7 35 29 -50
c16 -27 29 -58 29 -69 0 -11 7 -33 15 -49 19 -35 22 -276 4 -276 -7 0 -9 -8
-4 -22 4 -13 10 -40 13 -61 7 -38 27 -52 27 -19 1 20 20 18 42 -4 8 -8 29 -26
47 -39 33 -25 33 -26 34 -115 1 -50 4 -94 7 -99 3 -5 1 -12 -4 -15 -9 -6 -6
-105 4 -114 15 -16 33 63 34 151 1 26 4 47 8 47 4 0 24 -12 46 -27 38 -26 38
-28 33 -77 -3 -28 -5 -52 -6 -53 0 -1 -7 0 -15 3 -9 4 -15 0 -15 -9 0 -9 9
-19 20 -22 18 -6 20 -14 19 -98 -1 -51 -4 -95 -6 -99 -2 -5 -18 -1 -34 8 -32
16 -57 10 -26 -7 25 -14 67 -62 67 -76 0 -17 21 -28 29 -15 4 8 26 -1 61 -23
30 -19 63 -38 73 -41 15 -6 17 -26 19 -208 2 -244 1 -236 13 -236 6 0 11 24
11 54 1 29 4 58 7 64 4 5 7 71 8 146 2 150 3 152 64 117 28 -16 30 -23 33 -80
l3 -63 -34 26 c-19 14 -37 26 -40 26 -17 0 -4 -22 30 -53 35 -33 37 -37 36
-98 -1 -35 -6 -82 -11 -104 -15 -58 -21 -170 -11 -186 8 -12 12 -11 23 4 16
21 23 64 32 207 4 58 9 109 11 113 3 5 15 0 27 -10 11 -11 37 -27 58 -38 64
-33 80 -49 76 -78 l-3 -27 -55 29 c-67 35 -100 46 -100 32 0 -5 10 -13 23 -17
23 -7 73 -42 115 -81 23 -21 24 -25 18 -140 -16 -330 -17 -401 -6 -408 7 -4
18 -1 26 7 11 11 11 21 3 53 -6 21 -8 55 -4 74 3 20 8 65 11 101 5 66 16 90
40 90 8 0 14 7 14 15 0 12 8 9 33 -11 l34 -26 -3 -87 c-1 -47 -2 -121 -3 -165
-1 -63 -4 -77 -15 -73 -22 9 -28 -5 -9 -18 15 -11 17 -33 19 -141 0 -71 4
-136 7 -144 4 -8 8 -46 9 -85 3 -61 0 -72 -19 -92 -31 -30 -29 -49 6 -67 21
-11 31 -12 40 -3 12 12 15 69 5 80 -4 4 -7 69 -8 145 -1 101 -5 144 -15 156
-11 13 -11 17 3 22 11 4 16 18 16 45 0 21 2 39 6 39 14 0 142 -82 167 -106 22
-23 27 -38 27 -77 0 -27 -3 -47 -7 -45 -5 2 -25 12 -46 23 -27 14 -40 16 -48
8 -9 -9 2 -20 39 -43 l50 -31 4 -62 c2 -34 0 -73 -4 -87 -9 -29 -13 -133 -10
-257 2 -74 4 -83 21 -83 17 0 19 11 20 156 1 86 4 160 6 164 7 12 65 -12 65
-27 0 -7 4 -13 9 -13 5 0 7 -8 4 -19 -3 -11 4 -27 17 -39 21 -19 22 -31 24
-149 1 -108 4 -128 18 -131 24 -5 28 19 29 154 0 132 5 143 46 107 28 -25 21
-113 -8 -113 -25 0 -24 -15 1 -33 27 -19 45 -116 26 -145 -5 -8 -2 -20 7 -30
20 -22 25 -76 37 -401 9 -268 9 -275 -10 -288 -27 -19 -26 -67 1 -87 20 -13
21 -23 20 -150 -1 -114 1 -136 13 -136 10 0 17 14 21 43 7 57 -1 894 -10 935
l-8 32 30 -12 c16 -7 40 -21 54 -30 l24 -18 -27 10 c-23 8 -29 6 -38 -10 -6
-11 -8 -31 -4 -45 5 -21 10 -24 33 -19 47 10 51 13 51 34 0 11 3 20 8 20 21
-1 30 -20 29 -68 l-1 -54 -34 7 c-43 8 -40 -10 9 -43 19 -13 37 -29 41 -35 3
-7 9 -52 13 -102 4 -49 9 -92 10 -95 2 -3 6 -50 10 -105 3 -55 11 -117 16
-138 9 -34 16 -94 18 -154 1 -13 5 -23 11 -23 14 0 11 228 -5 408 -8 86 -15
160 -15 165 0 13 20 7 50 -15 16 -12 33 -18 37 -15 5 6 53 -94 53 -111 0 -2
-15 6 -34 17 -35 22 -86 28 -86 11 0 -12 71 -79 84 -80 5 0 17 -10 27 -21 15
-17 22 -19 33 -10 11 9 17 6 30 -13 9 -14 16 -29 16 -34 0 -4 22 -52 49 -107
28 -54 48 -102 45 -107 -8 -12 16 -49 27 -42 15 9 61 -5 54 -16 -3 -6 0 -10 7
-10 7 0 33 -19 58 -42 25 -23 60 -52 79 -65 19 -12 29 -23 23 -23 -6 0 -16 -9
-22 -20 -12 -23 4 -64 23 -57 7 2 17 -3 23 -11 7 -9 18 -13 28 -9 17 7 17 17
-2 66 -3 8 13 0 36 -19 23 -18 42 -37 42 -41 0 -14 47 -59 61 -59 8 0 39 -23
69 -51 30 -29 45 -47 33 -40 -19 10 -26 8 -43 -9 -24 -24 -17 -45 23 -65 45
-22 57 -19 57 15 l0 31 45 -38 46 -38 -26 -18 c-32 -24 -32 -52 0 -73 35 -23
58 -11 53 26 -3 17 -2 30 2 30 11 0 151 -142 145 -148 -3 -3 -10 -1 -16 5 -7
7 -22 8 -39 3 -16 -5 -45 -7 -65 -5 -142 13 -315 17 -315 6 0 -6 3 -11 8 -12
10 -1 46 -7 107 -18 28 -6 95 -13 150 -17 55 -5 105 -9 110 -10 6 -1 16 -2 24
-3 11 -1 11 -4 1 -16 -17 -20 3 -61 34 -69 23 -7 81 -84 71 -95 -6 -5 -49 -6
-160 -3 -11 0 -45 1 -75 1 -30 1 -75 3 -100 5 -86 8 -315 20 -347 18 -29 -1
-32 1 -35 31 -2 24 -8 32 -23 32 -17 0 -20 -8 -23 -50 -6 -88 6 -133 38 -150
25 -13 28 -13 33 4 2 10 1 25 -4 33 -4 8 -11 29 -14 47 -6 35 15 52 44 34 9
-5 39 -10 66 -12 28 -1 57 -4 65 -6 14 -4 310 -35 332 -35 5 0 7 -13 3 -29 -5
-24 -2 -32 15 -41 33 -17 50 -5 50 34 l0 35 138 -1 c75 0 156 3 180 7 41 7 44
6 87 -42 25 -26 45 -50 45 -53 0 -3 -43 -7 -96 -8 -81 -3 -98 0 -109 14 -11
16 -15 16 -56 -6 -42 -21 -51 -22 -194 -16 -82 3 -182 6 -222 6 -71 0 -71 0
-78 30 -4 17 -13 30 -21 30 -15 0 -35 -39 -27 -52 2 -5 -5 -8 -16 -8 -12 0
-21 -4 -21 -10 0 -5 8 -10 18 -10 14 0 21 -14 30 -58 7 -31 14 -78 15 -104 1
-42 4 -48 27 -52 20 -4 164 -18 215 -20 6 -1 13 -21 17 -46 15 -103 21 -114
61 -121 20 -3 37 -2 37 3 0 4 -9 8 -19 8 -16 0 -21 10 -26 58 -4 31 -9 65 -11
75 -5 15 3 17 78 17 46 0 88 -4 95 -8 12 -8 32 -81 33 -119 0 -21 -5 -23 -55
-23 -30 0 -55 -4 -55 -10 0 -5 12 -10 28 -10 15 0 43 -3 63 -6 33 -6 37 -10
43 -43 4 -20 10 -55 15 -77 7 -37 6 -41 -11 -36 -10 2 -18 0 -18 -6 0 -6 10
-12 22 -14 17 -2 25 -15 36 -55 11 -39 19 -53 32 -53 24 0 32 24 19 57 -5 14
-7 33 -4 40 3 8 -1 21 -9 28 -7 8 -17 36 -21 62 -4 26 -11 56 -16 66 -9 15 -4
17 55 17 77 0 90 -10 105 -77 5 -27 13 -56 16 -66 6 -13 2 -17 -19 -17 -38 0
-32 -18 8 -25 30 -6 35 -12 47 -53 6 -26 15 -51 20 -57 4 -5 9 -21 11 -34 3
-22 32 -51 41 -41 2 3 7 24 11 48 5 32 3 42 -8 42 -7 0 -16 10 -19 23 -3 12
-8 31 -12 42 -6 19 -2 20 58 17 l64 -4 21 -76 c21 -80 17 -98 -20 -86 -10 3
-18 1 -18 -5 0 -6 15 -11 34 -11 l34 0 19 -83 c10 -45 16 -84 12 -87 -3 -3
-12 -16 -18 -28 -11 -21 -10 -27 9 -44 12 -11 24 -17 27 -14 4 3 11 -4 17 -16
13 -25 26 -31 45 -19 12 8 12 18 -3 73 -9 34 -24 81 -33 103 -21 53 -25 115
-8 115 8 0 36 -5 63 -11 48 -11 51 -14 66 -61 8 -27 13 -61 10 -76 -4 -20 1
-34 20 -55 14 -16 26 -32 26 -38 0 -5 7 -26 16 -47 18 -40 20 -46 28 -80 7
-32 15 -42 32 -42 13 0 14 8 9 43 -4 23 -11 47 -16 53 -5 6 -10 31 -12 55 -1
24 -8 50 -15 57 -7 8 -9 24 -6 38 4 16 1 29 -9 37 -14 12 -37 68 -37 93 0 15
65 19 131 8 36 -6 37 -7 53 -80 22 -101 22 -104 -15 -104 -37 0 -35 -24 2 -27
13 0 29 -1 35 -2 7 -1 14 -13 17 -29 12 -57 35 -149 53 -207 10 -33 19 -64 20
-70 0 -5 6 -23 12 -38 7 -16 12 -34 12 -41 0 -6 5 -17 11 -23 6 -6 11 -26 12
-44 1 -23 7 -34 17 -34 25 0 20 47 -20 180 -11 39 -30 112 -41 164 -25 115
-18 142 39 136 31 -3 51 -17 52 -37 0 -5 -6 -8 -14 -8 -8 0 -24 -9 -37 -19
-22 -17 -22 -21 -10 -45 15 -28 39 -34 59 -14 19 19 40 -6 22 -27 -10 -12 -10
-15 3 -15 9 0 17 -13 20 -32 12 -75 29 -145 40 -173 6 -16 10 -42 9 -56 -2
-15 1 -30 7 -34 6 -3 11 -15 11 -26 0 -10 5 -19 10 -19 6 0 10 -15 10 -34 0
-19 5 -38 10 -41 6 -3 10 -17 10 -29 0 -13 7 -29 15 -36 22 -18 30 12 16 63
-6 23 -14 53 -16 66 -2 12 -8 28 -13 35 -9 10 -19 57 -26 117 -1 14 -6 31 -10
38 -9 13 -35 117 -36 139 0 8 23 12 80 12 92 0 91 0 104 -97 l7 -53 -38 0
c-49 0 -74 -15 -41 -23 12 -4 38 -7 55 -7 27 0 34 -4 38 -28 4 -15 10 -46 16
-69 12 -53 12 -50 -11 -56 -28 -7 -25 -27 5 -27 20 0 26 -7 35 -42 6 -24 13
-50 16 -58 3 -8 12 -39 20 -69 8 -30 19 -60 23 -65 5 -6 12 -30 16 -53 8 -48
17 -59 33 -40 11 12 8 28 -17 117 -23 83 -43 157 -48 182 l-5 27 70 0 c67 0
71 -2 80 -27 12 -32 49 -196 62 -267 4 -27 16 -68 26 -90 10 -22 17 -43 16
-47 -1 -5 3 -8 9 -8 6 0 9 -6 6 -14 -5 -13 10 -36 25 -36 15 0 30 41 19 54
-14 17 -48 124 -67 211 -8 39 -18 77 -21 85 -4 8 -6 18 -5 21 1 3 -5 30 -13
60 -8 30 -15 55 -15 57 0 2 30 2 67 0 l67 -3 8 -39 c5 -21 7 -40 6 -42 -2 -1
-20 -5 -42 -8 -47 -8 -58 -14 -50 -28 4 -6 25 -8 54 -4 54 7 60 1 52 -52 -4
-28 -1 -34 17 -39 19 -5 25 -23 24 -70 -1 -7 3 -13 7 -13 4 0 13 -23 20 -50
20 -82 47 -145 64 -148 27 -6 29 25 7 81 -11 28 -27 80 -35 114 -8 34 -17 67
-21 73 -4 7 2 18 14 27 27 18 24 56 -4 61 -11 2 -22 7 -25 10 -3 4 -3 6 -1 5
2 -2 9 1 15 6 6 5 35 11 65 13 50 3 55 1 62 -22 40 -135 66 -215 89 -268 25
-60 27 -62 43 -44 16 18 16 23 -8 86 -34 91 -33 95 14 86 47 -8 74 8 69 42 -2
18 -9 23 -30 23 -16 1 -33 6 -40 13 -16 16 -33 15 -49 -4 -11 -14 -15 -8 -26
42 -7 31 -11 60 -8 63 6 6 27 11 65 16 14 2 55 11 92 19 48 12 74 13 92 6 30
-11 43 -14 153 -30 43 -7 85 -13 93 -15 28 -6 205 -46 245 -56 22 -5 51 -12
65 -15 97 -19 200 -51 210 -65 3 -3 25 -11 50 -17 111 -25 284 -100 347 -150
21 -16 58 -42 83 -57 25 -15 52 -35 61 -44 9 -9 60 -47 113 -86 54 -38 120
-90 148 -115 28 -25 58 -49 68 -55 10 -5 35 -25 56 -43 44 -38 153 -123 213
-166 23 -17 41 -33 41 -38 0 -4 5 -8 11 -8 6 0 29 -17 52 -38 107 -97 162
-149 186 -176 29 -33 28 -32 142 -142 46 -45 91 -91 98 -102 19 -28 36 -33 65
-22 36 13 23 54 -28 89 -34 24 -153 131 -191 171 -60 64 -157 158 -185 179
-19 14 -56 45 -81 69 -25 24 -57 50 -70 59 -13 9 -46 37 -74 61 -27 25 -66 55
-86 68 -30 19 -111 83 -197 155 -8 6 -48 39 -90 72 -41 33 -101 84 -134 113
-32 30 -62 54 -67 54 -5 0 -16 6 -23 13 -14 13 -95 63 -138 84 -14 7 -32 17
-40 23 -19 12 -105 50 -187 81 -35 13 -63 27 -63 31 0 5 -7 8 -15 8 -8 0 -15
5 -15 11 0 7 -9 9 -21 6 -11 -3 -39 1 -61 9 -22 7 -43 12 -47 10 -4 -3 -49 4
-101 15 -52 11 -108 22 -125 26 -16 3 -39 10 -50 16 -11 6 -29 12 -40 13 -41
6 -150 28 -154 31 -6 5 31 43 38 39 3 -2 7 33 8 79 1 71 -2 86 -18 101 -10 9
-19 23 -19 30 0 7 -16 33 -35 58 -19 26 -35 50 -35 55 0 5 -8 15 -17 22 -18
15 -104 191 -108 224 -2 11 -8 61 -14 110 -11 91 -35 160 -66 185 -9 7 -22 28
-30 46 -7 18 -32 50 -55 71 -169 154 -177 177 -170 468 4 174 -31 546 -56 587
-3 4 -9 33 -14 64 -8 47 -6 66 11 113 11 31 22 61 23 66 2 6 10 26 19 46 19
43 21 88 9 194 -9 79 -37 191 -52 210 -5 6 -11 28 -16 50 -4 22 -20 67 -35
101 -16 34 -29 66 -29 71 0 6 -6 16 -13 22 -8 6 -19 37 -26 68 -7 32 -18 74
-25 93 -6 19 -11 69 -10 110 3 164 6 239 15 319 6 46 10 163 10 260 0 176 -1
185 -45 341 -9 30 -16 64 -16 75 0 24 -119 267 -135 277 -7 4 -16 19 -19 33
-4 14 -11 25 -16 25 -6 0 -10 9 -10 19 0 11 -7 26 -15 35 -15 14 -23 44 -50
191 -15 79 -52 188 -66 193 -5 2 -9 9 -9 16 0 6 -18 33 -40 60 -22 26 -40 52
-40 57 0 5 -5 9 -10 9 -13 0 -59 51 -60 65 0 6 -11 20 -23 32 -28 26 -64 100
-65 133 -1 17 18 47 61 96 71 81 75 85 180 216 43 53 83 98 89 100 12 4 44 99
52 159 4 25 16 69 27 98 10 29 23 92 29 141 5 50 12 95 15 100 11 19 46 161
60 249 8 46 21 99 30 117 24 51 20 175 -10 273 -13 45 -25 103 -26 129 -2 26
-6 54 -10 62 -10 21 -47 194 -54 255 -4 28 -20 101 -36 163 -16 62 -29 124
-29 138 0 29 -39 179 -68 264 -3 8 -4 19 -3 23 2 10 -25 90 -39 114 -11 21
-40 109 -40 124 0 6 -12 37 -27 69 -31 64 -61 88 -84 64 -15 -14 -29 -1 -183
167 -18 20 -60 49 -92 64 -33 15 -70 35 -84 45 -14 9 -68 27 -120 39 -52 12
-111 26 -131 31 -20 6 -52 10 -71 10 -19 0 -38 4 -44 8 -5 5 -36 14 -69 21
-33 7 -76 17 -95 22 -44 12 -103 19 -207 24 -46 3 -120 14 -165 26 -46 11
-155 29 -243 39 -88 10 -205 24 -260 30 -55 6 -107 14 -115 17 -24 9 -89 11
-182 4 -49 -4 -88 -4 -88 0 0 16 -35 18 -57 4 -21 -14 -31 -14 -104 0 -45 8
-82 15 -83 14 0 -1 -28 -7 -61 -14z m137 -74 c14 -12 -154 -130 -312 -219 -24
-14 -62 -38 -84 -54 -41 -30 -65 -35 -82 -18 -19 19 -44 0 -44 -34 0 -25 -6
-35 -26 -44 -14 -7 -56 -31 -92 -55 -152 -95 -195 -119 -189 -103 3 7 1 18 -5
24 -15 15 -3 41 24 51 31 12 148 100 148 112 0 5 6 9 14 9 8 0 16 4 18 8 2 4
32 26 67 48 35 21 74 46 86 54 49 31 120 80 130 87 6 5 20 7 33 5 22 -3 52 18
52 37 0 6 7 11 15 11 28 0 148 64 153 82 4 15 11 17 46 12 22 -4 44 -9 48 -13z
m325 3 c-3 -3 -12 -4 -19 -1 -8 3 -5 6 6 6 11 1 17 -2 13 -5z m-563 -16 c-2
-3 -18 -9 -34 -13 -17 -4 -30 -11 -30 -16 0 -5 -6 -9 -13 -9 -8 0 -27 -11 -43
-25 -16 -14 -33 -25 -37 -25 -5 0 -22 -10 -39 -21 -17 -12 -44 -25 -62 -28
-20 -5 -32 -13 -34 -26 -3 -18 -56 -60 -120 -94 -14 -8 -35 -23 -47 -33 -11
-11 -40 -34 -65 -51 -25 -17 -47 -33 -50 -36 -27 -31 -87 -33 -76 -4 3 8 6 23
6 34 0 10 5 19 12 19 6 0 20 7 30 17 10 9 31 16 48 15 16 0 30 3 30 8 0 15 63
70 131 115 37 24 70 48 74 54 3 6 14 11 24 11 9 0 45 23 80 51 35 28 75 53 89
55 15 3 28 7 31 9 7 7 99 0 95 -7z m491 4 c-20 -17 -164 -112 -169 -112 -3 0
-15 9 -27 21 -16 16 -23 18 -35 8 -8 -6 -17 -10 -20 -7 -4 5 33 40 87 81 17
13 42 17 98 17 41 0 71 -4 66 -8z m198 2 l45 -6 -32 -28 c-17 -15 -50 -38 -74
-50 -23 -12 -45 -26 -48 -31 -3 -5 -9 -7 -14 -4 -5 3 -21 -6 -36 -20 -15 -14
-30 -25 -35 -25 -4 0 -51 -29 -104 -65 -54 -36 -101 -65 -105 -65 -4 0 -13 -7
-20 -15 -7 -8 -24 -21 -39 -28 -44 -24 -74 -41 -118 -70 -24 -15 -45 -27 -47
-27 -2 0 -35 -20 -73 -45 -37 -25 -76 -51 -87 -58 -10 -6 -36 -24 -57 -39 -21
-16 -42 -28 -46 -28 -4 0 -18 -11 -32 -24 -15 -13 -57 -40 -96 -61 -38 -21
-86 -48 -105 -61 -19 -13 -45 -24 -57 -24 -13 0 -42 -20 -73 -51 -50 -50 -52
-51 -66 -31 -26 37 -84 -2 -69 -47 4 -15 -5 -23 -42 -41 -26 -12 -71 -37 -100
-56 -30 -19 -56 -34 -60 -34 -3 0 -15 -9 -27 -21 -44 -43 -122 -100 -145 -106
-17 -4 -28 0 -38 13 -13 17 -11 22 17 47 30 27 33 27 51 11 25 -23 49 -11 49
25 0 21 8 36 28 50 15 12 32 25 39 31 7 5 16 10 21 10 5 0 30 16 55 35 25 19
49 35 54 35 5 0 20 11 34 24 14 13 45 36 70 51 24 16 46 31 49 35 3 4 25 18
50 30 25 13 77 44 116 69 79 51 122 78 167 103 16 9 41 27 56 40 15 13 47 34
72 47 113 60 157 86 190 112 20 16 40 29 43 29 8 0 164 103 187 123 9 8 36 25
60 38 24 13 49 29 55 34 6 6 56 39 112 75 55 36 101 70 101 77 1 22 44 28 124
17z m-943 -29 c0 -3 -20 -14 -45 -26 -25 -12 -45 -24 -45 -28 0 -4 -21 -18
-47 -31 -27 -13 -71 -41 -100 -62 -29 -21 -56 -38 -60 -38 -4 0 -19 -12 -32
-25 -32 -34 -44 -31 -23 5 15 26 15 32 2 40 -8 5 -12 10 -10 12 3 2 15 11 26
21 18 15 26 16 47 6 32 -14 56 4 49 38 -4 19 4 27 49 48 30 14 65 25 79 26 14
0 34 4 45 9 22 9 65 13 65 5z m1134 -10 c-4 -8 -9 -15 -14 -15 -4 0 -17 -9
-30 -20 -18 -16 -25 -17 -32 -8 -13 21 -9 33 15 44 34 18 67 17 61 -1z m188
-1 l45 -6 -40 -37 c-43 -39 -90 -70 -149 -98 -30 -14 -38 -23 -38 -45 0 -39
23 -36 91 12 32 22 60 40 64 40 3 0 44 25 91 56 l84 55 55 -12 c31 -7 52 -16
48 -20 -17 -16 -140 -90 -185 -111 -52 -24 -63 -40 -48 -69 14 -25 22 -24 57
5 33 27 171 100 193 101 8 1 23 4 33 8 9 4 25 10 35 13 16 5 16 6 -1 15 -14 8
-15 14 -7 24 10 12 29 12 120 0 14 -2 33 -4 43 -4 30 -1 8 -21 -24 -21 -16 0
-29 -3 -29 -7 0 -5 -27 -25 -60 -47 -51 -32 -60 -43 -60 -67 0 -16 5 -29 11
-29 25 0 169 109 169 128 0 16 67 38 91 31 13 -5 44 -13 69 -19 l45 -12 -28
-14 c-15 -8 -27 -18 -27 -22 0 -4 -22 -25 -50 -47 -54 -43 -66 -79 -30 -90 23
-7 62 20 130 91 25 25 55 50 68 55 26 10 102 1 102 -12 0 -10 -55 -40 -62 -34
-3 3 -10 -6 -17 -18 -10 -19 -22 -24 -58 -26 -62 -2 -80 -17 -51 -42 13 -12
29 -17 41 -13 11 3 38 6 61 6 32 -1 45 5 67 29 14 16 31 29 37 29 7 0 12 4 12
9 0 5 14 15 31 24 29 13 36 13 97 -10 37 -13 70 -27 75 -32 8 -8 -40 -61 -55
-61 -9 0 -21 -58 -13 -69 6 -10 85 45 116 80 21 25 44 24 80 -2 24 -17 29 -28
29 -61 0 -37 2 -40 23 -35 67 17 215 -223 268 -435 8 -36 16 -48 30 -48 20 0
23 11 19 75 -3 60 5 41 35 -73 15 -57 33 -119 41 -138 8 -18 14 -55 14 -81 0
-26 10 -82 21 -123 21 -77 31 -124 50 -245 6 -38 17 -92 24 -120 7 -27 17 -75
23 -105 7 -30 19 -89 28 -130 19 -91 28 -227 14 -235 -5 -3 -6 -15 -1 -26 4
-13 0 -42 -12 -78 -11 -31 -20 -77 -21 -103 -1 -26 -5 -50 -9 -54 -4 -4 -7
-17 -7 -28 0 -12 -11 -55 -24 -96 -24 -77 -36 -129 -42 -189 -4 -46 -10 -49
-35 -18 -11 15 -28 27 -37 27 -23 0 -44 -47 -32 -70 9 -17 -8 -42 -36 -51 -17
-6 -84 -59 -128 -101 -21 -21 -45 -38 -52 -38 -15 0 -20 -45 -6 -53 4 -3 35
16 69 42 65 49 202 125 210 118 2 -3 1 -21 -3 -41 -5 -28 -20 -48 -62 -84 -31
-26 -81 -71 -111 -99 -30 -29 -56 -53 -57 -53 -2 0 -1 12 2 28 3 16 -1 35 -10
47 -12 17 -18 18 -35 8 -20 -13 -49 -10 -92 7 -26 11 -117 9 -136 -3 -6 -4 -8
-18 -5 -32 4 -23 -13 -83 -28 -95 -3 -3 -12 -25 -19 -50 -7 -25 -22 -57 -32
-71 -10 -14 -16 -29 -13 -32 13 -12 -9 -46 -34 -53 -39 -11 -50 -10 -117 3
-47 9 -62 9 -70 0 -12 -14 -221 -157 -229 -157 -4 0 -41 -27 -83 -61 -41 -33
-100 -76 -129 -94 -30 -19 -54 -39 -54 -44 0 -5 -9 -12 -20 -16 -10 -3 -83
-49 -161 -101 -78 -51 -146 -94 -152 -94 -5 0 -28 -15 -51 -33 -53 -42 -120
-87 -130 -87 -4 0 -14 -7 -22 -15 -17 -17 -44 -20 -44 -5 0 16 -50 11 -57 -5
-3 -9 2 -21 11 -28 18 -14 11 -29 -21 -46 -34 -18 -57 -13 -85 17 -26 26 -26
27 -8 50 10 12 22 22 26 22 4 0 57 33 118 73 61 40 127 82 146 93 19 10 48 29
63 42 16 12 35 22 43 22 8 0 14 7 14 15 0 8 6 15 13 15 8 0 24 11 37 25 13 14
28 25 32 25 5 0 25 12 44 26 19 15 36 25 38 23 1 -2 8 -18 15 -35 10 -26 17
-31 34 -26 47 12 61 76 18 78 -32 2 -36 11 -9 25 12 6 25 15 28 18 3 4 25 19
50 33 25 15 68 48 95 73 28 26 59 51 70 56 27 12 54 30 88 57 16 12 34 22 42
22 7 0 18 7 26 16 7 9 42 31 78 50 115 60 145 78 165 96 11 10 24 18 29 18 10
0 36 30 37 43 0 4 -9 7 -20 7 -12 0 -20 -7 -20 -16 0 -10 -6 -14 -14 -11 -12
5 -82 -25 -146 -63 -8 -4 -44 -23 -80 -40 -62 -31 -94 -51 -224 -140 -32 -22
-65 -40 -73 -40 -8 0 -12 -4 -9 -9 6 -9 -134 -111 -151 -111 -4 0 -19 -12 -32
-25 -13 -14 -28 -25 -33 -25 -16 0 -165 -108 -171 -124 -3 -7 -26 -23 -51 -35
-25 -13 -61 -33 -80 -46 -19 -13 -44 -26 -55 -30 -12 -3 -29 -17 -37 -31 -9
-13 -24 -24 -33 -24 -9 -1 -32 -14 -51 -30 -19 -17 -39 -30 -45 -30 -5 0 -16
-9 -23 -20 -7 -11 -19 -20 -26 -20 -8 0 -17 -6 -20 -12 -3 -10 -9 -8 -19 5 -8
9 -22 17 -32 17 -14 0 -16 -7 -13 -35 2 -19 0 -35 -5 -35 -4 0 -24 -12 -44
-27 l-36 -27 -38 44 c-40 46 -47 60 -29 60 11 0 76 43 111 75 24 21 125 91
224 154 47 31 60 40 87 64 11 10 34 25 51 34 64 29 88 45 100 64 6 10 19 19
28 19 9 0 19 6 22 13 5 13 228 167 243 167 4 0 28 17 53 38 25 20 59 44 75 52
16 8 41 27 55 41 14 14 41 34 59 44 35 21 41 39 17 49 -10 3 -32 -9 -58 -33
-23 -21 -49 -40 -58 -43 -9 -4 -49 -28 -90 -54 -69 -45 -86 -55 -149 -91 -14
-7 -53 -31 -88 -53 -53 -33 -66 -38 -86 -29 -19 9 -28 7 -52 -16 -24 -22 -26
-29 -16 -45 11 -17 5 -23 -56 -60 -64 -39 -179 -116 -213 -144 -9 -7 -20 -15
-25 -17 -28 -12 -134 -83 -134 -90 0 -5 -5 -9 -11 -9 -6 0 -31 -18 -56 -40
-60 -52 -84 -52 -139 4 -24 24 -44 47 -44 52 1 11 92 74 108 74 7 0 34 16 61
36 55 39 104 67 199 115 34 17 62 35 62 39 0 5 12 11 28 15 34 8 76 41 67 55
-9 14 -55 12 -85 -4 -96 -51 -151 -83 -188 -107 -24 -16 -49 -29 -57 -29 -8 0
-16 -4 -19 -9 -3 -5 -27 -20 -53 -34 -27 -13 -73 -41 -103 -61 -30 -20 -60
-36 -66 -36 -6 0 -27 24 -47 54 l-36 54 29 12 c16 7 59 32 96 56 37 24 70 44
75 44 10 0 17 22 11 38 -5 14 -32 16 -32 2 0 -5 -8 -10 -18 -10 -19 0 -140
-58 -178 -85 -19 -14 -22 -13 -47 22 -24 34 -25 38 -9 48 39 27 134 75 148 75
14 0 34 38 34 65 0 20 -56 12 -82 -12 -13 -11 -54 -35 -91 -54 l-68 -34 -17
21 c-9 12 -27 25 -39 29 -21 6 -23 3 -23 -28 0 -20 6 -37 13 -40 9 -3 9 -7 -2
-20 -20 -25 -46 -21 -66 9 -16 25 -16 27 7 51 12 14 41 34 63 45 22 12 43 25
46 29 3 5 25 15 50 22 39 11 44 16 44 42 0 41 -31 44 -87 8 -50 -31 -77 -48
-145 -85 l-49 -26 -28 34 c-22 28 -25 38 -16 49 7 8 18 15 26 15 7 0 17 7 22
16 5 9 11 15 13 14 2 -1 16 3 32 9 34 13 36 47 3 62 -20 10 -32 5 -84 -31 -52
-35 -64 -40 -82 -30 -26 14 -50 6 -50 -15 0 -19 -49 -67 -64 -62 -6 2 -11 21
-11 43 0 34 -3 39 -23 38 -29 -1 -23 4 72 60 71 41 82 44 96 31 9 -8 22 -15
28 -15 14 0 35 37 28 49 -3 5 1 11 9 15 31 11 5 56 -30 51 -16 -2 -75 -39 -75
-47 0 -5 -7 -8 -15 -8 -9 0 -41 -13 -72 -30 -31 -16 -61 -30 -68 -30 -7 0 -15
-7 -19 -15 -3 -8 -10 -15 -16 -15 -5 0 -10 7 -10 15 0 8 -4 15 -9 15 -12 0
-61 -51 -61 -64 0 -18 -47 -35 -59 -23 -6 6 -11 16 -11 23 0 6 -11 23 -24 37
l-24 26 41 24 c23 12 64 34 91 47 52 26 66 44 47 63 -6 6 -11 28 -11 48 0 46
-19 55 -55 27 -27 -21 -27 -55 1 -71 24 -14 15 -23 -41 -41 -30 -9 -57 -21
-60 -26 -4 -6 -13 -10 -22 -10 -8 0 -32 -13 -52 -28 -72 -56 -95 -53 -142 20
l-33 50 25 19 c13 10 29 19 36 19 7 0 16 6 20 13 8 12 28 25 88 56 16 9 32 18
35 21 7 8 115 60 124 60 4 0 22 11 39 24 18 14 43 27 57 31 34 8 95 59 87 73
-8 11 -47 5 -47 -8 0 -4 -15 -14 -32 -21 -18 -7 -45 -25 -59 -40 -14 -16 -39
-31 -55 -34 -79 -18 -104 -27 -117 -39 -7 -7 -23 -16 -35 -20 -66 -19 -67 -19
-54 -5 6 7 12 25 12 40 0 37 -33 44 -67 15 -22 -19 -24 -25 -14 -44 6 -12 21
-22 31 -22 11 0 20 -3 20 -7 0 -10 -66 -53 -81 -53 -6 0 -23 -8 -37 -18 -15
-10 -39 -24 -54 -31 -25 -13 -29 -12 -47 10 l-19 24 23 13 c21 11 23 16 14 39
-5 14 -8 26 -7 27 29 11 107 55 122 69 12 10 28 24 36 31 16 14 55 36 64 36 3
0 6 -7 6 -16 0 -22 28 -47 45 -40 23 8 30 55 12 74 -17 17 -19 15 66 59 15 8
27 20 27 28 0 7 9 15 21 18 12 3 18 10 14 16 -11 18 -35 12 -60 -15 -13 -14
-28 -23 -34 -20 -5 3 -16 -1 -25 -10 -9 -8 -20 -13 -24 -10 -5 3 -25 -6 -45
-19 -20 -14 -41 -25 -46 -25 -6 0 -11 -4 -11 -8 0 -5 -19 -19 -42 -31 -24 -12
-65 -35 -93 -51 -27 -15 -67 -31 -87 -35 -31 -6 -41 -3 -62 19 -15 14 -26 29
-26 33 1 12 114 83 133 83 10 0 20 7 23 15 4 8 12 15 19 15 7 0 15 4 17 8 4
10 105 72 118 72 6 0 10 4 10 9 0 5 9 12 19 16 11 3 37 18 58 32 65 44 122 72
116 57 -13 -36 44 -103 63 -73 12 20 7 72 -9 84 -8 6 -15 20 -14 31 4 38 -39
26 -165 -49 -69 -41 -151 -86 -181 -101 -31 -14 -59 -31 -62 -36 -3 -6 -17 -7
-30 -4 -18 4 -26 0 -37 -22 -7 -15 -16 -26 -20 -26 -5 1 -24 -7 -43 -18 -47
-26 -69 -25 -85 5 -10 19 -11 27 -1 39 11 14 15 14 28 1 23 -24 62 -19 68 8 4
13 5 29 3 36 -2 7 6 18 17 24 11 7 42 26 70 44 77 48 103 59 117 45 20 -20 39
-13 50 19 9 28 12 29 27 15 10 -9 27 -16 39 -16 27 0 40 43 21 67 -11 13 -11
17 -1 21 7 2 18 9 25 16 6 7 20 15 30 19 22 8 18 31 -6 35 -18 4 -190 -79
-218 -104 -8 -8 -19 -14 -23 -14 -4 0 -28 -14 -54 -32 -69 -48 -193 -111 -224
-114 -19 -3 -28 2 -33 16 -10 33 17 60 105 103 47 23 113 61 148 84 35 23 81
50 103 60 21 9 39 20 39 25 0 4 7 8 15 8 7 0 18 6 22 13 7 11 39 25 133 58 19
6 47 16 63 22 31 11 36 41 8 56 -10 6 -21 8 -24 4 -8 -7 -120 -53 -123 -50 -1
1 -7 12 -13 25 -14 27 -47 29 -61 3 -13 -25 -13 -27 5 -45 14 -14 9 -19 -57
-52 -40 -20 -74 -32 -75 -27 -2 6 -10 18 -17 28 -11 16 -16 16 -41 4 -36 -18
-41 -33 -17 -57 18 -18 18 -18 -2 -28 -12 -5 -45 -23 -73 -39 -57 -32 -72 -28
-88 22 -5 19 -1 25 20 33 15 6 50 25 79 44 86 56 187 111 256 140 8 3 27 14
41 24 15 9 41 26 58 37 34 21 37 28 18 43 -9 7 -44 -5 -127 -47 -175 -88 -313
-162 -330 -175 -34 -29 -48 -26 -64 12 -14 36 -14 38 11 60 14 13 38 25 53 29
16 3 39 16 51 29 12 13 26 24 31 24 5 0 25 11 46 25 31 21 38 23 51 11 26 -22
56 -27 76 -12 16 12 18 19 10 43 -10 27 -9 29 45 57 30 16 62 35 71 42 8 8 21
14 27 14 17 0 83 70 77 81 -8 12 -42 12 -47 0 -6 -16 -107 -74 -338 -192 l-55
-29 -13 31 c-7 16 -10 35 -6 40 8 13 74 54 100 63 11 3 72 35 135 71 63 36
120 65 127 65 8 0 12 9 10 23 -2 16 -9 21 -23 19 -23 -3 -183 -79 -205 -97 -8
-7 -25 -16 -38 -20 -13 -4 -50 -22 -82 -40 l-59 -33 -19 37 -20 37 32 14 c17
8 39 13 48 12 9 -2 19 5 22 16 7 19 70 66 107 77 11 4 36 17 55 30 19 13 52
26 74 30 36 6 40 10 40 36 0 38 -14 37 -103 -5 -40 -18 -84 -36 -98 -40 -14
-3 -42 -17 -62 -30 l-37 -25 -19 37 c-32 65 -34 78 -9 89 13 6 38 8 56 6 28
-5 32 -2 32 16 0 14 9 25 25 31 30 11 42 37 26 53 -8 8 -14 8 -22 0 -8 -8 -16
-9 -29 -1 -15 10 -15 13 7 34 24 24 32 74 11 74 -7 0 -27 -9 -45 -20 -18 -10
-35 -15 -38 -11 -7 12 12 25 84 60 36 17 68 36 72 42 4 8 -11 34 -38 68 -57
70 -60 77 -38 101 26 28 44 25 56 -10 8 -22 17 -30 35 -30 31 0 44 43 20 69
-16 18 -16 20 11 38 158 111 160 112 173 78 13 -34 48 -33 56 0 4 17 1 32 -10
44 -14 15 -15 21 -4 28 27 17 53 32 68 39 8 4 26 15 40 25 14 9 53 32 85 50
33 18 65 38 70 45 6 7 33 24 60 39 28 14 55 31 60 38 17 20 66 51 135 85 82
41 161 93 254 169 10 8 42 29 70 45 28 17 53 34 56 38 3 4 45 28 95 54 49 26
97 54 106 61 8 8 19 15 23 15 4 0 36 22 72 50 36 27 76 53 90 56 13 3 24 10
24 14 0 5 10 12 23 16 12 4 47 24 77 44 51 35 57 36 78 22 12 -8 22 -18 22
-21 0 -4 -22 -18 -50 -32 -54 -26 -57 -30 -35 -49 17 -14 28 -10 105 40 25 16
69 41 98 56 28 16 52 32 52 36 0 4 6 8 14 8 8 0 28 11 44 25 17 14 34 25 39
25 6 0 18 9 28 20 20 22 29 23 97 14z m-850 -79 c-3 -17 1 -27 12 -31 16 -6
16 -8 -1 -23 -24 -21 -93 -73 -115 -86 -106 -62 -179 -109 -184 -116 -3 -5
-14 -9 -25 -9 -10 0 -19 -3 -19 -7 0 -5 -22 -20 -49 -35 -41 -24 -50 -26 -60
-14 -10 11 -19 12 -42 4 -37 -13 -44 -25 -28 -44 11 -13 9 -19 -11 -35 -14
-10 -39 -25 -57 -34 -17 -8 -33 -19 -35 -23 -4 -10 -65 -52 -75 -52 -5 0 -42
-23 -83 -51 -41 -28 -85 -55 -98 -60 -12 -5 -61 -35 -109 -66 -47 -32 -124
-84 -171 -115 l-85 -57 -14 26 c-19 38 -13 66 17 74 81 23 85 25 90 51 5 27
33 54 85 80 49 24 107 58 154 90 24 16 70 43 104 61 81 43 94 51 115 70 10 9
35 23 55 32 21 9 40 22 44 30 3 8 11 15 17 15 11 0 153 86 166 100 3 3 36 21
75 40 38 19 81 45 95 56 27 24 72 51 135 83 22 12 54 32 70 46 17 13 31 24 31
25 1 0 -1 -11 -4 -25z m516 -7 c2 -9 -4 -18 -13 -21 -11 -5 -15 0 -15 19 0 28
23 29 28 2z m-1443 -177 c-3 -12 -10 -21 -14 -21 -5 0 -22 -12 -39 -27 -59
-54 -99 -79 -109 -69 -3 3 6 10 21 16 15 5 53 36 84 68 31 32 59 57 60 56 2
-2 1 -12 -3 -23z m5 -130 c0 -21 -9 -34 -35 -52 -19 -13 -35 -27 -35 -31 0 -5
-8 -8 -19 -8 -10 0 -26 -12 -35 -26 -19 -29 -52 -30 -70 -1 -14 23 0 45 45 68
18 10 39 22 44 26 16 12 89 51 98 52 4 1 7 -12 7 -28z m50 -110 c8 -16 -6 -27
-101 -86 -61 -37 -112 -65 -115 -62 -2 2 2 10 11 17 8 7 15 18 15 24 0 6 15
23 33 37 131 104 137 107 157 70z m-280 -78 c0 -7 -7 -13 -15 -13 -8 0 -15 -4
-15 -10 0 -15 -40 -12 -41 3 -3 26 3 42 18 54 14 11 20 10 35 -4 10 -9 18 -22
18 -30z m-120 -68 c0 -5 -16 -20 -35 -33 -44 -28 -48 -9 -9 38 20 24 29 28 35
18 5 -7 9 -17 9 -23z m30 -83 c0 -23 -28 -62 -44 -62 -29 0 -28 34 1 57 34 28
43 29 43 5z m-110 -90 c0 -15 -54 -52 -75 -52 -15 0 -1 32 21 49 33 26 54 27
54 3z m-130 -85 c0 -15 -40 -51 -47 -43 -8 7 30 66 39 60 4 -3 8 -11 8 -17z
m170 -14 c8 -21 16 -41 18 -44 2 -6 -62 -49 -73 -49 -10 0 -37 71 -32 84 5 12
49 41 67 45 4 1 12 -16 20 -36z m-124 -99 c14 -34 11 -61 -4 -38 -4 6 -20 10
-37 10 -23 -1 -30 3 -30 19 0 15 34 44 53 45 2 0 10 -16 18 -36z m-96 -95 c0
-4 -17 -20 -37 -34 -35 -23 -38 -24 -45 -8 -11 30 -9 39 19 67 l27 28 18 -22
c10 -12 18 -26 18 -31z m151 -21 c10 -18 8 -24 -11 -40 -29 -24 -42 -23 -59 4
-12 19 -11 23 10 39 32 24 46 24 60 -3z m-106 -89 c7 -22 -32 -66 -62 -71 -20
-4 -45 63 -26 69 6 2 21 13 34 24 24 21 43 13 54 -22z m-165 18 c0 -7 -9 -18
-21 -25 -17 -11 -20 -11 -13 0 20 36 34 46 34 25z m34 -99 c9 -33 8 -34 -21
-47 -36 -17 -46 -1 -23 37 23 38 35 40 44 10z m182 -30 c4 -13 7 -29 5 -36 -1
-8 7 -16 18 -19 19 -5 18 -7 -12 -27 -51 -35 -77 -38 -86 -13 -22 60 -22 75 1
83 12 3 28 13 36 20 19 20 30 17 38 -8z m-293 -48 c6 -23 -10 -37 -25 -22 -11
11 -1 55 12 47 4 -2 10 -14 13 -25z m160 -51 c17 -40 17 -41 -5 -59 -13 -11
-25 -19 -28 -20 -3 0 -12 17 -21 38 -15 37 -15 39 5 60 12 12 23 22 26 22 3 0
13 -18 23 -41z m-104 -74 c13 -37 9 -55 -15 -55 -8 0 -14 10 -14 23 0 13 -5
28 -11 34 -6 6 -8 16 -5 22 13 21 32 11 45 -24z m-81 -56 c11 -18 11 -24 -4
-40 -17 -19 -18 -19 -29 8 -8 19 -9 32 -2 41 13 17 20 15 35 -9z m253 -11 c19
-44 18 -51 -6 -65 -30 -18 -33 -17 -54 27 -19 39 -19 39 3 54 32 22 42 19 57
-16z m-104 -92 c6 -40 -13 -59 -31 -30 -19 33 -26 67 -15 81 16 18 39 -8 46
-51z m-85 -26 c16 -40 16 -40 -9 -60 -35 -28 -40 -26 -54 19 -10 34 -9 41 7
59 27 30 37 26 56 -18z m-114 -77 c14 -37 14 -42 -2 -58 -9 -10 -18 -16 -20
-14 -14 16 -26 53 -26 77 0 57 27 55 48 -5z m270 -40 c19 -51 19 -52 1 -58
-26 -9 -34 -2 -54 50 -16 45 -16 47 1 60 23 17 28 13 52 -52z m-92 -44 c14
-28 24 -52 22 -53 -2 -1 -16 -8 -33 -16 -16 -8 -33 -16 -37 -18 -5 -2 -8 6 -8
18 0 12 -7 35 -17 50 -14 24 -14 30 -2 42 12 12 26 20 46 27 2 1 14 -22 29
-50z m-127 -42 c5 -13 11 -36 13 -53 2 -23 -1 -29 -16 -29 -12 0 -22 9 -26 25
-21 80 -21 80 0 80 12 0 24 -9 29 -23z m190 -108 c15 -45 15 -47 -19 -54 -16
-4 -30 -11 -30 -16 0 -19 -27 -8 -38 16 -17 38 -15 48 16 67 41 25 59 22 71
-13z m-129 -93 c0 -5 -7 -3 -15 4 -8 7 -15 22 -15 34 1 20 2 20 15 -4 8 -14
14 -29 15 -34z m174 -47 c5 -23 1 -28 -24 -39 -17 -7 -32 -11 -33 -9 -2 2 -8
17 -15 32 -11 26 -10 29 20 42 37 15 43 12 52 -26z m-404 -149 c4 -3 12 -15
19 -28 10 -18 9 -26 -3 -44 -13 -18 -13 -25 0 -58 9 -21 14 -50 12 -65 l-3
-27 -25 20 c-14 11 -34 21 -45 23 -19 4 -20 13 -23 139 l-3 134 32 -45 c18
-24 35 -46 39 -49z m124 -190 c32 -41 36 -53 26 -65 -17 -20 -37 -19 -48 3 -8
14 -23 112 -18 112 1 0 19 -23 40 -50z m253 9 c11 -28 10 -31 -14 -40 -32 -12
-43 -4 -43 30 0 51 39 58 57 10z m-124 -176 c60 -68 86 -108 87 -130 0 -30
-14 -29 -75 5 l-50 27 0 68 c0 37 1 67 3 67 1 0 17 -16 35 -37z m-97 4 c6 -6
7 -62 1 -65 -4 -1 -21 5 -37 13 -22 11 -30 23 -30 42 0 23 3 25 32 19 17 -3
33 -7 34 -9z m177 -210 c13 -5 17 -18 17 -66 0 -54 -2 -59 -20 -56 -11 2 -25
9 -32 15 -7 6 -28 20 -45 30 -35 21 -41 44 -34 127 1 8 18 2 49 -15 26 -16 55
-31 65 -35z m111 -68 c30 -14 40 -35 20 -43 -16 -6 -18 -39 -4 -67 14 -26 -1
-24 -34 4 -24 21 -26 27 -20 70 4 26 8 47 10 47 2 0 14 -5 28 -11z m-94 -201
c0 -43 -2 -78 -5 -78 -7 0 -59 24 -65 30 -3 3 -21 13 -41 22 -44 20 -50 44
-35 140 l10 65 68 -50 68 -51 0 -78z m4026 140 c-16 -22 -139 -167 -189 -222
l-28 -31 6 35 c12 69 29 92 119 166 93 76 119 90 92 52z m-3792 -130 c13 -26
13 -27 -3 -18 -26 13 -39 31 -46 65 l-7 30 21 -25 c12 -14 27 -37 35 -52z
m-128 -4 c32 -25 34 -29 34 -90 l0 -63 -42 22 -43 22 -3 68 c-3 76 2 80 54 41z
m214 -134 c9 0 13 -12 24 -77 6 -39 5 -39 -51 -12 -24 11 -49 22 -55 23 -31 4
-38 19 -38 77 l0 60 55 -36 c31 -19 60 -35 65 -35z m100 29 c0 -5 -7 -6 -15
-3 -8 4 -15 13 -15 21 0 13 3 13 15 3 8 -7 15 -16 15 -21z m217 -87 c23 -27
21 -33 -30 -65 -25 -16 -28 -16 -34 -1 -3 9 -17 28 -29 42 -30 31 -30 36 -1
50 31 14 68 4 94 -26z m-158 -47 c0 -5 -6 -1 -14 9 -8 11 -15 24 -15 30 0 5 7
1 15 -10 8 -10 14 -23 14 -29z m370 -9 c35 -36 37 -57 5 -62 -10 -2 -23 -9
-28 -17 -8 -12 -17 -4 -47 36 l-37 52 27 12 c38 17 43 16 80 -21z m-425 -35
c-8 -8 -28 18 -31 41 -3 20 -1 20 16 -7 11 -16 18 -31 15 -34z m2910 23 c24
-15 16 -35 -20 -54 -16 -8 -31 -17 -34 -20 -3 -3 -24 -17 -46 -32 -38 -25 -43
-25 -69 -12 -15 8 -36 12 -47 9 -20 -7 -22 -13 -9 -34 12 -18 -15 -61 -37 -61
-19 0 -52 29 -52 46 0 8 13 20 29 29 16 8 35 20 43 28 7 7 51 38 98 68 86 57
98 60 144 33z m-3080 -9 c38 -17 60 -33 66 -50 5 -14 14 -25 20 -25 12 0 13
-50 1 -69 -7 -11 -13 -12 -23 -4 -7 6 -31 16 -53 22 -22 6 -50 19 -63 29 -21
16 -23 23 -16 70 3 29 8 52 9 52 1 0 28 -11 59 -25z m476 -50 c0 -7 7 -18 15
-25 20 -17 19 -25 -7 -42 -53 -34 -65 -32 -94 18 -22 38 -25 48 -13 55 8 5 19
9 25 9 6 0 17 7 24 15 12 14 15 14 31 -1 11 -10 19 -23 19 -29z m337 37 c6 -4
19 -21 27 -37 15 -29 15 -30 -21 -52 l-36 -22 -27 37 -26 36 25 23 c28 24 39
27 58 15z m-606 -94 c19 -15 33 -87 21 -106 -6 -9 -17 -8 -50 5 l-42 18 0 63
0 63 28 -16 c15 -8 34 -20 43 -27z m506 -21 c16 -32 16 -32 -40 -63 -27 -14
-29 -14 -34 5 -3 12 -8 21 -12 21 -3 0 -12 9 -19 21 -12 19 -11 23 9 38 51 36
68 32 96 -22z m2462 36 c-6 -10 -37 -34 -68 -54 -48 -30 -60 -34 -74 -24 -19
14 -12 25 14 25 10 0 21 9 24 20 3 11 12 20 19 20 8 0 19 7 26 15 7 8 25 15
41 15 25 0 28 -2 18 -17z m-2815 -85 c-9 -13 -24 -9 -24 7 0 8 -4 15 -9 15
-11 0 -22 40 -14 53 3 5 16 -7 29 -28 13 -21 21 -42 18 -47z m570 21 c14 -17
26 -35 26 -40 0 -5 -18 -18 -39 -29 l-39 -19 -26 33 c-24 32 -24 34 -7 50 10
9 23 16 29 16 7 0 12 5 12 10 0 19 18 10 44 -21z m2326 15 c0 -2 -7 -4 -15 -4
-8 0 -15 4 -15 10 0 5 7 7 15 4 8 -4 15 -8 15 -10z m-2677 -55 c9 -17 17 -34
17 -39 0 -5 -21 -16 -46 -26 -45 -17 -47 -17 -61 2 -35 47 -35 51 9 77 49 29
57 27 81 -14z m557 -69 c-29 -22 -44 -16 -36 13 3 12 0 27 -6 34 -5 7 -8 20
-4 28 4 13 13 8 38 -21 l32 -36 -24 -18z m2238 -35 c37 -75 56 -125 77 -195
24 -78 42 -116 81 -167 19 -25 34 -50 34 -57 0 -7 14 -39 31 -72 45 -87 69
-168 74 -254 2 -41 10 -115 16 -165 7 -58 8 -102 2 -124 l-9 -35 -27 57 c-41
83 -145 200 -203 230 -102 52 -243 74 -296 46 -31 -16 -98 -84 -98 -100 0 -7
-6 -20 -13 -28 -34 -39 -49 -106 -52 -224 l-3 -119 38 -26 c62 -44 58 -57 -21
-77 -38 -9 -77 -15 -86 -14 -10 1 -36 -5 -58 -15 -22 -9 -59 -18 -82 -20 -41
-3 -43 -2 -43 25 0 16 -9 37 -22 49 -12 11 -18 20 -14 20 4 0 -1 17 -12 38
-35 68 -62 129 -62 141 0 6 -15 28 -34 48 -79 85 -96 111 -120 193 -10 30 -21
63 -27 72 -12 23 -12 65 1 73 6 3 10 15 10 27 0 39 41 151 93 255 16 33 18 44
9 56 -10 12 -1 22 47 56 33 22 62 41 66 41 11 0 139 62 155 76 8 6 60 35 115
64 55 28 109 60 120 70 11 9 36 25 55 35 19 10 42 23 50 30 8 7 26 16 40 20
35 10 80 55 80 79 0 18 5 16 30 -14 16 -19 42 -62 58 -95z m-640 66 c-7 -2
-21 -12 -31 -22 -17 -18 -19 -18 -42 -2 -27 20 -32 33 -12 33 8 0 22 9 32 20
l18 20 24 -22 c17 -16 20 -24 11 -27z m432 37 c0 -7 -12 -21 -28 -30 -15 -9
-45 -29 -67 -45 -43 -30 -115 -66 -115 -57 0 16 54 48 113 68 9 3 20 14 24 23
12 36 73 70 73 41z m-199 -8 c29 -16 23 -36 -16 -60 l-36 -22 -24 26 -25 27
25 9 c14 5 25 14 25 20 0 13 26 13 51 0z m-2178 -97 c-20 -18 -38 -33 -40 -33
-7 0 -42 40 -53 59 -9 18 -8 22 7 27 10 3 29 12 43 19 23 13 27 12 53 -13 l27
-26 -37 -33z m267 -12 c0 -5 -10 -13 -22 -17 -13 -3 -31 -13 -40 -22 -20 -17
-34 -9 -60 36 l-18 30 43 20 42 21 28 -29 c15 -16 27 -33 27 -39z m-890 51 c0
-5 16 -14 35 -22 29 -12 35 -19 35 -44 l0 -31 -13 25 c-10 19 -20 25 -47 25
-28 0 -35 4 -41 28 -6 22 -4 27 12 27 10 0 19 -4 19 -8z m268 -17 c14 -30 15
-45 4 -45 -5 0 -16 16 -25 35 -13 27 -14 35 -3 35 7 0 18 -11 24 -25z m2173
-15 c20 0 7 -20 -28 -41 -21 -13 -41 -28 -46 -33 -5 -7 -13 -4 -22 8 -8 11
-15 22 -15 25 0 3 22 20 48 37 34 23 48 27 50 18 2 -8 8 -14 13 -14z m235 -4
l28 -23 -25 -13 c-13 -7 -28 -19 -32 -26 -12 -21 -31 -17 -58 12 -20 21 -22
27 -9 34 8 5 24 16 35 24 26 20 29 20 61 -8z m-2185 -16 c5 0 9 -5 9 -12 0 -6
7 -20 17 -30 9 -10 11 -18 5 -18 -6 0 -17 -6 -24 -13 -7 -8 -25 -17 -39 -20
-22 -6 -31 -1 -52 27 -25 31 -25 35 -9 49 9 8 31 21 47 30 26 13 30 13 33 1 2
-8 8 -14 13 -14z m588 -48 l34 -46 -23 -18 c-24 -19 -40 -16 -40 8 0 8 -3 14
-7 14 -5 0 -19 16 -32 35 -23 34 -23 36 -5 49 24 18 33 13 73 -42z m-358 11
c8 -16 18 -31 24 -35 10 -7 -17 -31 -64 -56 -21 -11 -26 -9 -47 13 -13 15 -24
31 -24 38 1 11 76 66 91 67 3 0 12 -12 20 -27z m-524 -22 c10 -15 9 -22 -6
-35 -16 -14 -17 -13 -19 19 -3 39 7 45 25 16z m2355 -23 c23 -23 23 -26 -4
-30 -13 -2 -27 -13 -33 -25 -5 -13 -15 -23 -22 -23 -22 0 -59 21 -71 40 -9 16
-6 22 21 43 54 41 62 40 109 -5z m-2548 -19 c10 -28 16 -34 39 -32 24 2 27 -1
27 -33 0 -41 -6 -42 -54 -9 -20 14 -41 25 -46 25 -11 0 -16 36 -11 72 4 37 30
24 45 -23z m957 16 c12 -19 25 -35 29 -35 5 0 11 -9 15 -20 12 -38 -71 -94
-101 -69 -8 6 -14 16 -14 21 0 5 -11 24 -25 42 -25 33 -25 66 0 66 7 0 18 7
25 15 21 25 49 17 71 -20z m1746 15 c-14 -11 -31 -20 -39 -20 -7 0 1 9 17 19
40 26 54 26 22 1z m-416 -9 c27 -25 8 -37 -33 -20 -28 12 -29 13 -12 26 22 16
21 17 45 -6z m-1971 -6 c0 -8 -2 -15 -4 -15 -2 0 -6 7 -10 15 -3 8 -1 15 4 15
6 0 10 -7 10 -15z m273 -63 c19 -32 19 -32 -5 -42 -12 -5 -33 -17 -44 -25 -20
-15 -23 -14 -43 21 -12 20 -21 38 -19 39 17 15 75 44 83 42 5 -2 18 -18 28
-35z m1612 16 c24 -11 35 -38 16 -38 -5 0 -19 -11 -32 -24 -19 -20 -27 -22
-45 -14 -13 6 -30 8 -38 5 -18 -7 -22 -42 -6 -52 11 -7 -48 -65 -66 -65 -21 0
-56 39 -52 58 4 20 107 101 130 102 9 0 21 6 25 14 4 7 15 16 23 19 8 3 16 6
17 6 1 1 14 -4 28 -11z m380 -8 c-3 -6 -21 -17 -38 -26 -36 -19 -31 -9 10 17
34 21 36 22 28 9z m-1758 -51 c37 -51 38 -55 18 -75 -8 -9 -15 -24 -15 -34 0
-10 -4 -22 -10 -25 -5 -3 -10 -1 -10 4 0 6 -7 11 -15 11 -7 0 -18 6 -22 14 -4
7 -23 31 -42 53 -18 23 -33 44 -33 48 1 11 75 55 87 51 5 -1 24 -22 42 -47z
m1566 17 c24 -31 25 -34 8 -39 -25 -6 -68 43 -56 63 10 17 22 11 48 -24z
m-2216 -18 c18 -19 20 -26 9 -40 -20 -27 -70 -10 -74 26 -7 61 16 67 65 14z
m1009 15 c16 -16 40 -40 53 -55 l24 -27 -37 -17 c-19 -10 -37 -16 -39 -13 -2
2 -21 28 -42 58 -37 51 -38 54 -20 67 25 19 28 18 61 -13z m-900 -28 c10 -26
0 -37 -20 -22 -11 8 -16 19 -12 25 10 16 26 15 32 -3z m2021 -12 c16 -18 20
-30 13 -37 -5 -5 -10 -18 -10 -27 0 -9 -10 -23 -22 -32 -22 -14 -25 -13 -55
17 l-32 31 36 37 c21 21 39 38 42 38 3 0 16 -12 28 -27z m-1857 -5 c28 -31 25
-45 -12 -51 -43 -6 -55 0 -60 28 -9 46 36 61 72 23z m653 -51 l40 -57 -24 -19
c-47 -38 -70 -37 -111 8 -21 22 -38 45 -38 50 0 6 13 17 29 25 16 9 31 25 34
37 8 31 24 21 70 -44z m-432 16 c36 -39 61 -82 54 -92 -3 -5 1 -12 7 -15 7 -3
2 -3 -12 -1 -66 14 -107 31 -130 53 l-25 24 35 29 c19 15 38 29 41 29 3 0 17
-12 30 -27z m-464 -76 c43 -29 86 -56 96 -60 13 -5 16 -15 13 -49 -3 -24 -5
-49 -5 -55 -1 -22 -36 -14 -82 17 -24 16 -49 30 -54 30 -6 0 -17 6 -23 13 -7
6 -18 12 -24 12 -6 0 -13 6 -16 13 -3 11 0 12 19 2 19 -11 24 -10 35 5 11 14
10 23 -7 53 -10 20 -19 42 -19 49 0 6 -6 14 -12 16 -7 3 -10 6 -6 6 4 1 42
-23 85 -52z m1163 -59 c0 -10 -30 -25 -57 -29 -29 -5 -89 67 -70 85 38 38 51
37 89 -7 21 -23 38 -45 38 -49z m600 38 c0 -10 -39 -46 -51 -46 -4 0 -19 14
-34 32 -27 32 -27 32 -6 42 11 5 21 13 21 18 0 4 16 -2 35 -14 19 -13 35 -27
35 -32z m212 27 c35 -34 35 -38 -2 -53 -16 -7 -30 -16 -30 -21 0 -15 -14 -10
-45 16 l-30 25 35 30 c19 16 37 30 39 30 3 0 18 -12 33 -27z m-1212 -70 l25
-25 -30 5 c-16 3 -49 9 -72 12 -52 8 -56 27 -10 55 l32 20 15 -21 c8 -12 26
-32 40 -46z m-447 17 c29 -11 63 -32 76 -45 22 -26 41 -26 41 1 0 12 5 12 36
-1 20 -8 47 -15 60 -15 14 0 50 -6 82 -14 31 -8 82 -19 112 -26 91 -18 104
-21 125 -30 18 -8 39 -12 115 -25 14 -2 37 -6 51 -9 41 -9 143 -24 274 -41 66
-9 127 -18 135 -22 8 -3 33 -9 55 -13 22 -5 65 -15 95 -24 30 -9 67 -16 81
-16 15 0 38 -9 52 -20 14 -11 29 -20 33 -20 4 0 14 -7 23 -15 9 -8 29 -27 45
-41 35 -33 65 -98 66 -139 0 -37 25 -173 50 -280 11 -44 22 -109 26 -145 7
-79 40 -187 65 -214 11 -11 19 -26 19 -34 0 -19 50 -82 66 -82 7 0 21 -16 30
-35 9 -19 21 -35 26 -35 5 0 22 -9 36 -20 29 -23 10 -22 421 -21 155 1 218 4
229 13 13 11 14 2 9 -73 -3 -48 -9 -99 -13 -113 -5 -22 -1 -34 24 -59 16 -18
33 -42 37 -54 3 -13 12 -23 19 -23 6 0 18 -16 25 -36 7 -20 21 -44 31 -54 23
-23 106 -198 97 -206 -6 -6 -73 -3 -147 6 -41 6 -109 14 -150 19 -41 4 -93 13
-115 19 -22 6 -67 13 -100 16 -76 6 -137 14 -198 26 -87 18 -118 13 -154 -22
-18 -18 -33 -37 -33 -42 0 -6 -14 -23 -32 -37 -29 -24 -32 -31 -35 -98 -1 -39
-4 -74 -5 -78 -1 -8 5 -27 27 -78 12 -27 27 -72 30 -85 4 -18 20 -61 36 -95
10 -23 23 -64 29 -93 5 -29 23 -92 39 -140 16 -48 32 -107 36 -132 4 -25 13
-58 20 -75 21 -48 37 -106 32 -112 -6 -5 -60 11 -112 33 -17 7 -41 24 -54 38
-14 14 -35 26 -48 26 -54 0 -105 38 -228 168 -5 6 -46 44 -89 84 -100 92 -156
149 -156 159 0 4 -9 11 -20 14 -11 3 -20 12 -20 18 -1 7 -12 21 -26 32 -14 11
-54 48 -90 83 -35 34 -69 62 -75 62 -6 0 -27 16 -47 35 -58 54 -123 105 -155
121 -16 9 -47 32 -69 52 -96 89 -158 151 -158 160 0 5 -9 17 -20 27 -11 10
-20 24 -20 31 0 7 -6 19 -13 26 -7 7 -23 39 -35 71 -12 33 -31 70 -42 84 -11
14 -20 33 -20 42 0 10 -4 21 -8 26 -13 17 -70 157 -82 205 -7 25 -16 50 -20
55 -8 10 -46 106 -79 200 -21 60 -115 293 -141 350 -10 22 -37 90 -60 150 -23
61 -45 119 -50 130 -39 101 -50 132 -50 142 0 6 -3 13 -8 15 -12 5 -53 133
-56 177 -2 22 -9 47 -15 55 -8 10 -9 16 -1 21 15 9 12 55 -3 55 -7 0 -23 14
-35 30 -22 29 -22 30 -3 30 11 0 44 -9 74 -20z m1066 5 c38 -19 46 -42 20 -55
-11 -6 -24 -22 -29 -36 -12 -31 -18 -30 -62 10 -41 38 -41 53 0 79 33 20 36
21 71 2z m-383 -38 c8 -4 14 -13 14 -19 0 -7 10 -22 21 -35 l22 -22 -34 10
c-19 6 -45 12 -59 14 -42 4 -71 17 -67 29 6 19 81 57 86 43 2 -7 10 -16 17
-20z m640 0 l21 -33 -40 -22 -40 -22 -24 22 c-30 28 -29 49 5 70 40 24 55 21
78 -15z m215 -15 c16 -14 15 -17 -14 -36 -51 -35 -64 -37 -71 -14 -3 13 3 33
15 49 21 29 37 29 70 1z m-1899 -52 c17 0 108 -69 99 -75 -29 -18 1 -84 33
-72 8 3 17 -1 20 -9 8 -21 -4 -46 -20 -40 -7 3 -32 10 -56 16 -23 7 -64 23
-89 36 l-47 23 -1 63 c0 35 2 71 5 81 6 18 7 18 28 -2 12 -12 25 -21 28 -21z
m1328 -37 c-1 -9 -26 -7 -82 8 -27 7 -36 14 -32 24 4 8 13 15 20 15 8 0 17 6
20 13 3 10 15 5 40 -19 20 -17 35 -36 34 -41z m215 27 c10 -11 15 -23 12 -26
-3 -4 -2 -15 4 -25 8 -16 6 -19 -10 -19 -10 0 -33 6 -51 14 l-33 13 22 22 c11
11 21 26 21 31 0 16 15 12 35 -10z m213 -47 c-20 -22 -101 -38 -95 -18 2 5 25
25 53 42 43 30 49 31 55 15 4 -10 -1 -25 -13 -39z m-1488 -15 c0 -20 -20 -24
-37 -7 -8 8 -8 20 -1 41 l11 31 13 -24 c7 -13 13 -32 14 -41z m5 -129 c0 -26
-4 -29 -30 -29 -44 0 -57 12 -50 46 13 56 12 56 47 33 25 -16 33 -29 33 -50z
m68 -69 c3 -11 1 -18 -4 -14 -5 3 -9 12 -9 20 0 20 7 17 13 -6z m-110 -38 c9
-10 20 -33 23 -50 4 -17 10 -29 15 -26 10 6 12 -7 3 -30 -9 -24 -35 -19 -67
10 -21 19 -27 33 -23 48 3 11 6 31 6 44 0 27 21 29 43 4z m159 -91 c5 -14 14
-38 18 -53 8 -26 7 -27 -11 -17 -12 6 -18 17 -15 24 3 9 -7 21 -24 32 -37 21
-38 38 -4 39 19 2 28 -5 36 -25z m-150 -90 c35 -18 44 -55 19 -80 -16 -16 -23
-17 -55 -7 -34 10 -36 13 -36 53 0 31 4 43 18 46 21 4 20 4 54 -12z m168 -96
c25 30 57 8 75 -53 7 -23 6 -23 -24 -8 -24 13 -35 14 -49 5 -13 -8 -28 -9 -48
-2 -27 9 -29 14 -31 64 l-3 54 34 -38 c29 -32 35 -35 46 -22z m97 -210 c14
-11 32 -20 41 -20 9 0 17 -7 17 -15 0 -8 4 -21 9 -28 4 -7 6 -14 5 -15 -2 -2
-11 -8 -21 -15 -14 -11 -25 -9 -67 14 -51 26 -51 26 -51 75 0 48 1 49 22 37
12 -7 32 -22 45 -33z m-29 -163 c3 -29 5 -30 41 -27 21 2 49 -3 62 -11 13 -7
32 -16 41 -20 14 -5 24 -22 55 -101 4 -11 -36 6 -140 58 -22 10 -45 19 -52 19
-15 0 -20 14 -30 79 -6 34 -4 42 6 39 8 -3 15 -18 17 -36z m240 -266 c7 -9 42
-102 42 -112 0 -1 -8 0 -17 3 -37 9 -54 32 -62 81 -7 44 -6 49 10 45 10 -3 22
-10 27 -17z m1987 -1105 c3 -5 20 -13 38 -17 34 -7 133 -59 143 -75 3 -5 15
-9 27 -9 12 0 36 -9 52 -20 17 -11 41 -20 56 -20 14 0 29 -4 35 -8 11 -10 83
-31 104 -30 8 0 42 -8 75 -17 33 -10 77 -20 97 -22 35 -5 38 -8 53 -62 9 -31
23 -63 29 -71 7 -8 18 -30 24 -48 6 -18 20 -45 30 -60 11 -15 23 -43 27 -62 4
-19 11 -39 15 -45 4 -5 11 -26 14 -45 4 -19 13 -62 21 -95 8 -33 21 -112 31
-175 9 -63 32 -181 51 -263 32 -134 38 -149 62 -161 32 -17 121 -110 121 -127
0 -7 7 -21 17 -31 9 -10 21 -27 27 -37 6 -10 28 -45 49 -76 22 -32 42 -66 45
-74 3 -9 8 -18 12 -21 10 -8 70 -98 70 -105 0 -7 46 -69 76 -102 28 -30 58
-98 51 -116 -3 -8 -22 -22 -41 -31 -50 -24 -168 -16 -209 14 -17 13 -35 19
-47 15 -28 -9 -93 55 -88 87 2 19 -4 25 -40 37 -30 9 -69 38 -128 93 -46 44
-84 84 -84 88 0 5 -39 48 -87 97 -49 48 -98 99 -109 113 -20 23 -68 66 -156
141 -21 17 -38 40 -38 50 0 11 -8 22 -17 25 -53 16 -114 50 -147 80 -20 19
-41 34 -47 34 -5 0 -9 3 -9 8 0 4 -27 25 -60 46 -33 22 -60 43 -60 48 0 4 -7
8 -14 8 -18 0 -128 64 -144 83 -10 12 -8 13 12 10 36 -7 45 19 49 140 2 61 9
112 15 120 7 8 15 29 18 48 4 19 12 40 18 48 6 8 12 32 13 55 1 23 4 67 6 99
3 31 1 57 -3 57 -4 0 -10 24 -13 53 -9 80 -13 99 -31 141 -9 21 -14 42 -11 46
3 4 -6 38 -20 74 -31 83 -32 101 -6 86 11 -5 22 -14 26 -19z m-769 -359 c46
-45 94 -102 94 -113 0 -5 -9 -1 -20 9 -13 12 -30 17 -44 15 -18 -4 -26 0 -30
15 -4 11 -13 22 -20 25 -7 3 -22 21 -34 41 l-21 36 23 0 c13 0 36 -13 52 -28z
m-386 -336 c25 -2 57 -5 71 -5 24 -1 27 -7 44 -78 11 -43 23 -84 28 -90 7 -10
-11 -13 -86 -13 -79 0 -95 3 -91 14 3 8 -1 27 -10 44 -8 16 -15 38 -15 48 -1
10 -4 36 -7 57 -5 29 -3 36 7 32 8 -3 34 -7 59 -9z m435 -17 c47 2 73 -14 77
-49 2 -14 6 -29 10 -35 6 -11 20 -70 19 -82 -1 -3 -23 -8 -51 -9 -47 -2 -51 0
-65 27 -9 16 -13 29 -10 29 3 0 -1 14 -10 30 -9 17 -22 30 -30 30 -20 0 -28
-40 -16 -74 6 -15 11 -32 11 -37 0 -11 -150 -12 -166 -1 -5 4 -16 34 -24 67
-7 33 -16 64 -20 68 -4 5 -5 18 -2 29 5 20 9 20 121 13 64 -4 134 -7 156 -6z
m171 -14 c4 -8 13 -15 21 -15 9 0 35 -9 58 -21 37 -18 43 -27 53 -68 6 -25 10
-47 9 -48 -1 -1 -34 -3 -72 -4 l-70 -3 -22 75 c-12 41 -22 80 -22 87 -1 17 38
15 45 -3z m235 -127 l20 -28 -30 0 c-32 0 -33 2 -44 74 l-5 30 19 -25 c11 -13
29 -36 40 -51z m-285 -87 c11 -1 25 -42 39 -109 l7 -34 -44 3 c-61 4 -68 8
-68 39 0 28 -21 55 -33 43 -4 -3 -7 0 -7 8 0 8 -3 24 -6 36 -6 22 -8 22 112
14z m220 -41 c6 -19 14 -52 17 -72 5 -33 3 -38 -14 -38 -13 0 -26 15 -40 45
-26 55 -34 61 -55 41 -8 -9 -20 -16 -26 -16 -6 0 -7 -8 -3 -17 17 -43 18 -48
7 -38 -6 6 -17 38 -25 73 l-15 63 72 -3 71 -3 11 -35z m165 24 c5 -2 6 -18 2
-34 -3 -19 0 -39 11 -55 9 -13 16 -26 16 -28 0 -2 -25 -3 -56 -3 -55 1 -56 1
-69 38 -7 20 -15 51 -19 69 l-6 32 56 -7 c31 -4 60 -9 65 -12z m109 -69 c7 -8
18 -15 25 -15 7 0 18 -7 25 -15 11 -13 7 -15 -27 -15 -33 0 -42 4 -51 25 -7
14 -12 28 -12 30 0 11 29 4 40 -10z m-292 -105 l57 0 16 -70 c18 -81 15 -85
-66 -75 l-50 7 -17 51 c-32 101 -32 101 -13 94 9 -4 42 -7 73 -7z m237 -17 c3
-10 10 -36 14 -58 5 -22 12 -48 16 -57 6 -16 0 -18 -58 -18 l-65 0 -12 48 c-6
26 -14 59 -17 75 l-5 27 60 0 c48 0 61 -4 67 -17z m207 -5 c14 -25 48 -109 48
-119 0 -4 -38 -7 -84 -8 l-84 -2 -11 53 c-7 29 -14 63 -17 75 -6 22 -4 23 65
23 62 0 72 -2 83 -22z m107 -37 c4 -9 5 -27 1 -41 -8 -26 -9 -25 -28 37 -9 26
-8 31 4 26 8 -3 18 -13 23 -22z m-294 -162 c5 -20 13 -29 26 -29 10 0 20 -3
20 -7 1 -5 3 -17 5 -28 2 -11 4 -27 6 -35 4 -19 0 -20 -72 -20 l-60 0 0 34 c0
19 -4 38 -10 41 -5 3 -10 23 -10 43 l0 37 44 -3 c40 -4 46 -7 51 -33z m215 -9
c4 -15 15 -26 30 -30 30 -7 50 -54 32 -72 -6 -6 -43 -12 -81 -13 -77 -2 -71
-7 -100 84 -20 64 -18 67 51 61 56 -5 63 -7 68 -30z m351 -39 l58 -59 -32 -5
c-18 -3 -36 -1 -41 4 -6 6 -6 9 1 9 8 0 8 9 0 31 -11 28 -15 31 -49 26 -33 -4
-38 -2 -48 23 -29 71 26 56 111 -29z m-160 4 l27 -65 -28 0 c-16 0 -31 -6 -34
-12 -8 -22 -35 21 -42 68 -3 25 -10 47 -15 50 -17 10 2 24 34 24 30 0 34 -5
58 -65z m68 -188 c11 -35 21 -75 21 -90 0 -23 -4 -27 -27 -27 -71 0 -77 7 -98
118 l-12 62 47 0 47 0 22 -63z m191 56 c0 -2 -12 -14 -26 -27 -26 -22 -27 -23
-8 -44 11 -13 30 -22 47 -22 19 0 27 -4 24 -12 -2 -7 0 -21 5 -30 8 -16 3 -18
-42 -18 -28 0 -59 -4 -68 -9 -21 -11 -47 5 -56 37 -20 71 -21 66 5 48 35 -24
49 -20 49 14 0 17 -3 30 -8 30 -4 0 -13 9 -19 20 -12 18 -10 19 42 19 30 -1
55 -3 55 -6z m143 -101 c4 -7 17 -21 29 -31 20 -19 20 -19 -25 -19 -45 0 -45
0 -56 43 -6 23 -14 51 -17 61 -5 14 2 11 27 -11 19 -16 37 -36 42 -43z m-67
-165 c11 -54 10 -57 -12 -72 -34 -22 -117 -20 -138 4 -9 10 -16 22 -14 27 1 5
-1 26 -5 47 -5 20 -6 41 -3 45 2 4 39 7 82 6 l79 -1 11 -56z m165 26 c19 -47
27 -92 18 -95 -5 -2 -33 -2 -62 0 l-53 4 -11 49 c-7 34 -6 46 1 39 16 -16 44
-12 56 10 15 28 39 25 51 -7z m102 -74 c15 -26 15 -27 -3 -22 -13 4 -20 14
-20 31 0 14 1 23 3 21 2 -2 10 -16 20 -30z m-48 -116 c3 -21 8 -50 10 -66 4
-24 3 -26 -15 -17 -27 15 -57 12 -64 -5 -3 -8 -15 -15 -26 -15 -16 0 -20 7
-20 30 0 23 4 30 20 30 28 0 39 49 15 67 -17 12 -14 13 28 13 46 0 46 0 52
-37z m161 10 c-3 -8 3 -34 14 -58 11 -24 20 -49 20 -54 0 -18 -35 -12 -60 9
-28 24 -36 25 -48 3 -8 -13 -11 -10 -18 18 -4 19 -8 37 -8 41 -1 3 -4 10 -8
14 -5 4 -8 17 -8 28 0 19 5 21 61 18 48 -3 59 -7 55 -19z m109 -103 c18 -19
17 -20 -3 -20 -15 0 -22 6 -22 20 0 11 2 20 3 20 2 0 12 -9 22 -20z m-284 -71
c17 -17 26 -20 39 -11 15 9 18 6 24 -26 3 -20 9 -46 12 -57 5 -19 0 -21 -65
-23 -70 -3 -71 -2 -77 25 -3 16 -10 41 -15 57 -15 49 -12 56 26 56 22 0 43 -8
56 -21z m230 -18 c4 -3 9 -22 12 -42 l5 -35 -41 -2 c-23 -2 -50 -5 -59 -8 -17
-5 -23 6 -32 58 -3 18 -1 25 8 22 6 -2 20 2 31 10 19 14 61 12 76 -3z m128 -5
c39 1 71 -21 71 -48 0 -15 -9 -18 -60 -18 -56 0 -61 2 -70 26 -16 40 -13 57 8
48 9 -4 32 -8 51 -8z m107 -124 c14 -2 25 -50 13 -58 -10 -6 -28 -10 -92 -19
-41 -6 -45 -5 -50 17 -13 46 -8 57 26 60 31 3 79 3 103 0z m130 -11 c-3 -4
-17 -6 -33 -5 -36 3 -35 3 -29 12 3 5 19 7 35 4 17 -2 29 -7 27 -11z"/>
<path d="M5854 9973 c-23 -16 -25 -50 -5 -74 28 -34 56 -16 56 37 0 31 -4 39
-20 42 -11 1 -25 -1 -31 -5z"/>
<path d="M4772 9958 c-6 -6 -12 -23 -12 -36 0 -20 4 -23 33 -20 28 3 32 6 32
33 0 22 -5 31 -20 33 -11 1 -26 -3 -33 -10z"/>
<path d="M4374 9890 c-32 -13 -35 -35 -11 -64 26 -30 43 -32 68 -10 19 17 16
37 -9 67 -17 19 -18 19 -48 7z"/>
<path d="M5500 9845 c-11 -20 -11 -27 0 -40 16 -19 44 -19 64 1 26 25 16 47
-25 57 -21 5 -28 2 -39 -18z"/>
<path d="M5744 9759 c-24 -27 -9 -53 35 -57 29 -3 31 -1 31 27 0 20 -7 34 -19
41 -26 13 -25 13 -47 -11z"/>
<path d="M4381 9541 c-12 -8 -12 -13 3 -36 22 -34 44 -42 62 -23 24 24 8 68
-25 68 -14 0 -32 -4 -40 -9z"/>
<path d="M3982 9488 c-18 -18 -15 -35 10 -52 30 -21 60 -4 56 32 -2 20 -9 28
-28 30 -14 2 -31 -3 -38 -10z"/>
<path d="M3563 9394 c-21 -9 -15 -52 8 -64 32 -18 51 -5 47 32 -3 33 -24 45
-55 32z"/>
<path d="M3674 9315 c-14 -56 55 -81 78 -29 14 31 -4 54 -43 54 -22 0 -30 -6
-35 -25z"/>
<path d="M4217 9204 c-19 -10 -27 -21 -23 -31 3 -8 6 -21 6 -29 0 -20 49 -18
71 2 18 16 18 18 2 45 -20 33 -19 33 -56 13z"/>
<path d="M3362 9074 c-40 -28 -17 -64 43 -64 23 0 25 3 19 27 -7 24 -26 53
-36 53 -2 0 -14 -7 -26 -16z"/>
<path d="M3253 9030 c-27 -11 -29 -36 -7 -68 20 -29 38 -28 58 3 20 31 21 61
0 69 -19 7 -23 7 -51 -4z"/>
<path d="M3583 9010 c-23 -14 -33 -27 -33 -45 0 -34 30 -33 70 4 29 26 30 29
15 45 -20 19 -14 20 -52 -4z"/>
<path d="M3097 8974 c-12 -12 -8 -41 8 -54 23 -19 77 6 73 34 -2 16 -11 22
-38 24 -20 2 -39 0 -43 -4z"/>
<path d="M3846 8908 c-11 -42 -6 -67 15 -79 34 -18 52 7 41 57 -9 47 -45 61
-56 22z"/>
<path d="M6823 8845 c-34 -24 -13 -65 33 -65 33 0 49 25 36 55 -13 29 -38 32
-69 10z"/>
<path d="M3279 8744 l-22 -36 22 -21 c27 -28 53 -14 63 34 5 26 3 37 -9 47
-24 18 -29 16 -54 -24z"/>
<path d="M4021 8751 c-15 -28 -14 -42 7 -57 27 -21 48 -16 61 13 14 30 4 46
-36 57 -16 5 -25 2 -32 -13z"/>
<path d="M5270 8750 c-29 -22 -22 -44 19 -58 38 -13 56 3 42 40 -13 34 -32 40
-61 18z"/>
<path d="M3618 8703 c-25 -6 -31 -34 -12 -54 33 -37 72 -11 54 35 -10 26 -12
27 -42 19z"/>
<path d="M5530 8595 c-11 -13 -11 -20 0 -40 16 -29 30 -31 71 -10 24 13 28 19
19 34 -17 33 -69 42 -90 16z"/>
<path d="M3793 8504 c-14 -38 23 -78 55 -58 35 23 22 64 -22 68 -16 2 -30 -2
-33 -10z"/>
<path d="M5898 8469 c-24 -13 -23 -42 1 -63 42 -38 83 13 45 55 -20 22 -22 22
-46 8z"/>
<path d="M6895 8361 c-3 -2 -5 -17 -5 -32 0 -22 6 -30 25 -35 47 -12 70 16 45
56 -9 14 -55 22 -65 11z"/>
<path d="M3408 8349 c-22 -13 -23 -55 -2 -63 28 -11 52 -6 58 10 19 50 -12 79
-56 53z"/>
<path d="M4971 8333 c-10 -11 -11 -20 -2 -39 14 -30 37 -40 56 -24 19 15 21
74 3 67 -7 -2 -20 -1 -28 3 -9 5 -21 2 -29 -7z"/>
<path d="M3610 8167 c-48 -38 -46 -80 5 -89 32 -7 44 8 40 51 -3 38 -23 55
-45 38z"/>
<path d="M5635 8139 c-12 -18 4 -59 24 -59 25 0 53 33 45 54 -7 18 -59 22 -69
5z"/>
<path d="M5231 8088 c-9 -24 14 -67 35 -68 14 0 44 33 44 48 0 13 -39 42 -58
42 -7 0 -16 -10 -21 -22z"/>
<path d="M6803 8094 c-10 -26 14 -64 40 -64 32 0 56 42 37 65 -16 20 -69 20
-77 -1z"/>
<path d="M5074 8075 c-7 -29 10 -55 35 -55 42 0 58 63 19 74 -39 10 -47 7 -54
-19z"/>
<path d="M3808 8063 c-30 -5 -44 -29 -27 -49 13 -16 65 -19 74 -3 8 12 -2 60
-13 58 -4 -1 -19 -4 -34 -6z"/>
<path d="M6560 7999 c-6 -11 -10 -30 -8 -42 2 -17 10 -22 33 -22 23 0 32 6 39
26 5 15 6 34 3 43 -9 23 -54 20 -67 -5z"/>
<path d="M3773 7918 c-59 -29 -22 -75 40 -50 30 13 37 46 11 56 -20 8 -24 7
-51 -6z"/>
<path d="M6219 7904 c-14 -28 -7 -38 33 -48 32 -7 42 5 33 43 -8 37 -47 40
-66 5z"/>
<path d="M5416 7877 c-15 -11 -16 -17 -7 -35 22 -41 91 -40 91 2 0 43 -46 61
-84 33z"/>
<path d="M5814 7863 c-5 -19 -2 -30 11 -40 29 -20 49 -16 78 17 26 28 26 30 7
40 -10 5 -35 10 -54 10 -30 0 -37 -4 -42 -27z"/>
<path d="M3573 7872 c-13 -2 -23 -9 -23 -15 0 -7 -3 -22 -6 -34 -4 -16 0 -23
15 -28 36 -11 61 3 61 34 0 34 -16 48 -47 43z"/>
<path d="M5117 7793 c-15 -14 -6 -43 18 -59 20 -13 28 -14 40 -4 23 19 18 49
-11 60 -30 12 -38 12 -47 3z"/>
<path d="M4768 7772 c-37 -5 -47 -38 -19 -65 28 -29 75 -14 79 25 4 31 -18 46
-60 40z"/>
<path d="M4019 7755 c-38 -21 -43 -42 -13 -61 24 -16 26 -16 45 5 15 15 19 30
15 47 -7 28 -11 28 -47 9z"/>
<path d="M6615 7750 c-32 -12 -44 -32 -34 -58 7 -19 15 -23 41 -20 29 3 33 7
36 34 4 36 -15 55 -43 44z"/>
<path d="M3844 7675 c-8 -19 13 -45 36 -45 49 0 67 30 31 50 -28 15 -61 12
-67 -5z"/>
<path d="M3153 7588 c-28 -14 -29 -39 -3 -63 36 -32 73 4 52 51 -13 27 -17 28
-49 12z"/>
<path d="M6188 7533 c-40 -10 -9 -63 36 -63 17 0 49 53 39 64 -7 7 -48 6 -75
-1z"/>
<path d="M3908 7486 c-23 -17 -23 -29 1 -50 13 -12 27 -16 43 -11 40 13 48 24
36 51 -13 27 -51 32 -80 10z"/>
<path d="M5472 7478 c-17 -17 -15 -46 4 -65 22 -23 64 -2 64 31 0 37 -44 58
-68 34z"/>
<path d="M5794 7455 c-6 -14 13 -75 23 -75 2 0 15 7 28 16 17 11 25 26 25 45
0 27 -3 29 -35 29 -23 0 -38 -6 -41 -15z"/>
<path d="M4975 7440 c-12 -13 -15 -27 -11 -46 6 -22 11 -25 34 -19 41 10 46
20 26 54 -22 36 -25 37 -49 11z"/>
<path d="M4100 7325 c-4 -5 -7 -21 -6 -35 1 -32 34 -38 66 -12 19 16 21 22 11
40 -12 23 -55 27 -71 7z"/>
<path d="M5143 7239 c-28 -10 -30 -39 -5 -69 20 -25 42 -20 58 13 19 41 -11
72 -53 56z"/>
<path d="M4777 6712 c-25 -28 -22 -60 7 -68 36 -9 46 2 46 47 0 31 -4 39 -18
39 -11 0 -26 -8 -35 -18z"/>
<path d="M5750 10380 c0 -5 5 -10 10 -10 6 0 10 5 10 10 0 6 -4 10 -10 10 -5
0 -10 -4 -10 -10z"/>
<path d="M3111 5994 c-26 -33 -27 -60 -2 -73 14 -8 22 -6 34 7 23 26 30 61 17
77 -17 21 -26 19 -49 -11z"/>
<path d="M3357 5892 c-27 -29 -21 -52 18 -68 20 -8 40 -12 45 -9 17 10 11 61
-8 78 -24 22 -35 21 -55 -1z"/>
<path d="M2904 5685 c-9 -35 11 -58 37 -42 22 13 25 37 7 55 -19 19 -37 14
-44 -13z"/>
<path d="M3397 5342 c-23 -25 -21 -49 4 -57 30 -10 68 28 53 53 -16 24 -37 26
-57 4z"/>
<path d="M3559 5259 c-13 -20 -14 -37 -6 -94 14 -108 19 -1055 6 -1055 -6 0
-9 -9 -6 -20 3 -11 1 -23 -4 -26 -14 -8 -11 -40 7 -54 11 -10 14 -27 10 -71
-4 -51 -2 -58 16 -62 25 -7 34 15 19 51 -9 22 -8 34 8 67 30 63 36 123 16 145
-14 15 -16 35 -13 117 2 54 3 260 3 458 -1 339 -9 481 -34 547 -7 20 -8 20
-22 -3z"/>
<path d="M2616 5149 c-31 -25 -33 -39 -6 -62 39 -33 70 -11 70 52 0 38 -24 41
-64 10z"/>
<path d="M3645 5140 c3 -5 10 -10 16 -10 5 0 9 5 9 10 0 6 -7 10 -16 10 -8 0
-12 -4 -9 -10z"/>
<path d="M2725 5007 c-13 -20 -14 -30 -5 -47 13 -25 48 -24 64 2 9 14 6 23
-16 44 l-26 26 -17 -25z"/>
<path d="M3082 4829 c-11 -17 -11 -24 0 -37 7 -9 13 -18 14 -20 1 -2 13 0 28
4 26 6 33 25 20 58 -9 23 -47 20 -62 -5z"/>
<path d="M3708 4779 c-23 -13 -23 -42 0 -62 40 -37 83 -8 60 40 -15 31 -34 38
-60 22z"/>
<path d="M2981 4751 c-6 -10 -8 -52 -5 -97 3 -44 7 -108 8 -144 2 -62 4 -65
29 -68 21 -3 27 1 27 16 0 11 9 22 20 25 24 6 28 58 5 77 -8 7 -15 9 -15 4 0
-5 -6 0 -12 11 -6 11 -12 53 -13 95 -1 75 -8 100 -25 100 -5 0 -14 -8 -19 -19z"/>
<path d="M3298 4548 c-14 -27 -13 -243 2 -328 5 -30 10 -81 11 -112 2 -52 4
-57 23 -54 19 3 21 10 23 84 1 45 -2 84 -7 87 -6 4 -10 53 -10 109 0 80 3 106
15 116 8 7 15 21 15 32 0 10 -7 21 -15 24 -9 4 -15 19 -15 35 0 35 -24 39 -42
7z"/>
<path d="M3112 4284 c-33 -23 -28 -49 13 -61 25 -8 38 -8 50 1 13 10 13 15 -5
44 -22 37 -27 38 -58 16z"/>
<path d="M4211 4227 c-26 -26 -4 -81 28 -69 39 14 44 67 7 74 -14 3 -30 0 -35
-5z"/>
<path d="M4368 4191 c-10 -10 -18 -25 -18 -34 0 -16 28 -37 49 -37 17 0 33 40
27 66 -7 28 -33 31 -58 5z"/>
<path d="M3806 3983 c3 -40 3 -40 19 -19 20 27 19 46 -3 46 -13 0 -17 -7 -16
-27z"/>
<path d="M3817 3933 c-11 -10 -8 -163 2 -163 6 0 9 8 9 18 0 9 2 47 5 85 6 61
1 78 -16 60z"/>
<path d="M4462 3859 c1 -13 8 -23 13 -21 15 3 12 35 -3 40 -9 3 -13 -3 -10
-19z"/>
<path d="M4388 3684 c-10 -21 -8 -28 10 -47 21 -20 24 -21 50 -7 39 22 42 57
5 65 -15 4 -34 8 -41 11 -7 2 -18 -8 -24 -22z"/>
<path d="M4648 3639 c-38 -21 -10 -73 33 -62 24 7 34 40 19 58 -14 17 -28 18
-52 4z"/>
<path d="M4700 3550 c0 -5 9 -10 20 -10 11 0 20 5 20 10 0 6 -9 10 -20 10 -11
0 -20 -4 -20 -10z"/>
<path d="M4742 3478 c-13 -13 -16 -45 -4 -51 4 -2 19 -7 35 -11 25 -6 27 -4
27 23 0 20 -7 34 -19 41 -24 13 -24 13 -39 -2z"/>
<path d="M5124 3409 c-8 -14 11 -33 25 -25 11 7 4 36 -9 36 -5 0 -12 -5 -16
-11z"/>
<path d="M4272 3321 c-8 -4 -12 -19 -10 -32 2 -19 9 -24 33 -24 33 0 45 25 25
50 -14 17 -29 19 -48 6z"/>
<path d="M3727 3206 c-8 -21 7 -68 50 -158 31 -63 42 -78 61 -78 31 0 29 33
-9 111 -17 35 -38 80 -47 99 -18 37 -46 50 -55 26z"/>
<path d="M4249 3187 c-10 -21 -7 -33 16 -79 36 -70 57 -107 76 -138 9 -14 31
-49 49 -77 18 -29 37 -53 41 -53 3 0 14 -16 24 -36 11 -23 22 -34 33 -32 26 5
26 35 -1 70 -22 29 -66 100 -119 193 -14 25 -51 98 -78 154 -11 25 -29 24 -41
-2z"/>
<path d="M4001 3167 c-13 -13 -15 -57 -2 -57 11 0 91 -117 91 -134 0 -8 6 -16
14 -19 13 -5 46 -67 60 -109 7 -22 29 -23 46 -3 10 12 6 28 -25 88 -21 39 -48
86 -60 102 -12 17 -34 53 -48 81 -26 52 -56 71 -76 51z"/>
<path d="M4665 3150 c3 -5 10 -10 16 -10 5 0 9 5 9 10 0 6 -7 10 -16 10 -8 0
-12 -4 -9 -10z"/>
<path d="M4655 3100 c-9 -28 25 -84 53 -88 31 -5 29 38 -4 77 -30 36 -40 38
-49 11z"/>
<path d="M5170 2740 c0 -5 5 -10 10 -10 6 0 10 5 10 10 0 6 -4 10 -10 10 -5 0
-10 -4 -10 -10z"/>
<path d="M5440 2549 c0 -5 14 -9 30 -9 17 0 30 3 30 8 0 4 -13 8 -30 8 -16 1
-30 -2 -30 -7z"/>
<path d="M3584 2385 c-9 -23 3 -44 30 -55 14 -5 39 -29 56 -52 17 -24 37 -51
45 -61 8 -9 15 -20 15 -23 0 -3 13 -25 29 -48 17 -24 56 -94 89 -157 32 -63
73 -139 90 -169 67 -118 83 -148 123 -225 22 -44 51 -98 64 -120 13 -22 30
-55 39 -72 8 -18 29 -53 45 -77 17 -25 31 -51 31 -60 0 -8 6 -21 13 -28 21
-21 56 -99 51 -113 -7 -16 38 -28 48 -12 4 6 -1 21 -12 32 -11 12 -20 31 -20
43 0 12 -13 35 -30 50 -19 19 -30 39 -30 56 0 31 -16 66 -39 83 -9 7 -12 13
-8 13 7 0 -1 19 -34 80 -4 8 -35 67 -67 130 -33 63 -68 131 -80 150 -11 19
-55 105 -98 190 -44 85 -83 159 -87 165 -4 5 -29 46 -55 90 -61 104 -89 144
-127 177 -33 30 -72 36 -81 13z"/>
<path d="M3366 2336 c-8 -34 83 -221 144 -293 5 -7 10 -15 10 -18 0 -4 15 -27
33 -53 17 -26 46 -74 63 -107 18 -33 45 -85 61 -115 15 -30 39 -77 51 -105 13
-27 34 -70 47 -95 13 -25 24 -53 24 -63 1 -10 13 -30 28 -45 25 -24 28 -25 31
-8 4 17 -13 69 -46 146 -8 19 -23 55 -34 80 -11 25 -24 54 -31 65 -6 11 -24
45 -39 75 -58 111 -94 177 -135 240 -74 115 -94 148 -127 212 -18 35 -35 73
-38 86 -8 29 -34 28 -42 -2z"/>
<path d="M4103 2315 c-19 -21 -17 -31 26 -93 21 -31 60 -91 86 -132 27 -41 57
-87 67 -102 10 -15 18 -34 18 -42 0 -8 4 -16 9 -18 5 -1 20 -25 35 -53 14 -27
39 -72 56 -100 16 -27 42 -75 57 -105 15 -30 30 -57 33 -60 6 -6 33 -58 133
-255 45 -88 84 -162 87 -165 11 -10 130 -229 130 -240 0 -6 8 -10 18 -8 22 5
18 51 -7 87 -10 14 -24 42 -31 61 -8 19 -16 37 -19 40 -3 3 -14 21 -25 40 -10
19 -35 64 -54 100 -20 36 -64 121 -100 190 -96 188 -153 292 -174 322 -10 15
-28 46 -39 70 -32 66 -90 167 -186 326 -12 21 -29 51 -37 68 -8 17 -22 36 -30
44 -9 7 -16 19 -16 26 0 18 -21 17 -37 -1z"/>
<path d="M3108 2239 c-10 -5 -18 -17 -18 -25 0 -34 135 -286 163 -305 5 -4 18
-4 28 -2 26 7 26 59 0 68 -11 3 -24 18 -30 33 -6 15 -24 50 -40 79 -16 28 -35
71 -41 95 -12 42 -26 68 -39 68 -3 0 -14 -5 -23 -11z"/>
<path d="M2842 2203 c-16 -31 -2 -113 19 -113 5 0 9 -7 9 -16 0 -22 62 -94 82
-94 9 0 19 8 23 19 7 24 -15 73 -30 67 -17 -6 -55 77 -55 119 0 28 -4 35 -20
35 -10 0 -23 -8 -28 -17z"/>
<path d="M6204 1929 c-10 -17 37 -99 56 -99 39 0 54 55 23 82 -25 21 -70 31
-79 17z"/>
<path d="M4612 1908 c-17 -17 -15 -27 16 -63 127 -153 155 -199 291 -490 34
-71 66 -137 71 -145 6 -8 21 -38 35 -67 29 -62 42 -71 56 -41 10 24 -6 64
-106 258 -13 25 -49 97 -79 160 -78 160 -108 213 -128 228 -10 7 -18 19 -18
26 0 7 -12 23 -26 37 -14 13 -37 43 -51 67 -26 43 -40 51 -61 30z"/>
<path d="M5728 1865 c-13 -28 5 -60 29 -51 7 3 13 -1 13 -9 0 -18 14 -19 41
-5 32 18 7 86 -27 73 -6 -2 -15 0 -19 6 -10 18 -25 13 -37 -14z"/>
<path d="M5075 1816 c-16 -11 -16 -17 -4 -52 7 -21 21 -51 31 -66 10 -14 18
-30 18 -35 0 -5 24 -45 53 -89 28 -44 61 -97 72 -117 11 -21 32 -52 47 -70 16
-17 28 -38 28 -44 0 -7 4 -13 9 -13 5 0 19 -21 31 -47 39 -85 43 -93 51 -93 5
0 13 9 19 20 8 15 7 26 -4 42 -8 13 -17 34 -21 47 -4 13 -23 45 -41 71 -19 26
-34 51 -34 56 0 5 -14 25 -30 44 -16 19 -30 38 -30 42 0 4 -17 34 -37 65 -33
52 -50 81 -99 173 -8 14 -14 35 -14 46 0 27 -22 37 -45 20z"/>
<path d="M2320 1710 c0 -5 5 -10 10 -10 6 0 10 5 10 10 0 6 -4 10 -10 10 -5 0
-10 -4 -10 -10z"/>
<path d="M6063 1713 c-7 -3 -13 -20 -13 -39 0 -27 5 -35 24 -40 33 -8 46 2 46
35 0 29 -32 53 -57 44z"/>
<path d="M7587 1445 c-15 -11 -16 -17 -6 -39 7 -14 18 -26 24 -26 7 0 28 -17
46 -37 56 -62 62 -65 95 -48 16 8 34 15 40 15 6 0 16 11 22 24 9 20 7 27 -8
41 -10 9 -23 14 -29 11 -5 -3 -23 -8 -41 -10 -25 -3 -40 5 -78 39 -41 37 -50
41 -65 30z"/>
<path d="M3260 1399 c0 -5 5 -7 10 -4 6 3 10 8 10 11 0 2 -4 4 -10 4 -5 0 -10
-5 -10 -11z"/>
<path d="M5593 1334 c-8 -21 4 -99 19 -124 16 -25 44 -26 57 -2 6 12 5 23 -5
37 -8 10 -14 31 -14 46 0 15 -3 34 -6 43 -8 21 -43 21 -51 0z"/>
<path d="M2090 1140 c0 -5 5 -10 10 -10 6 0 10 5 10 10 0 6 -4 10 -10 10 -5 0
-10 -4 -10 -10z"/>
<path d="M7165 980 c-3 -5 -1 -10 4 -10 6 0 11 5 11 10 0 6 -2 10 -4 10 -3 0
-8 -4 -11 -10z"/>
</g>
</svg>
